<svg xmlns="http://www.w3.org/2000/svg" viewBox="0 0 297.64 420.94"><title>Artboard 1ldpi</title><g style="isolation:isolate"><rect y="1" width="296" height="419.33" fill="#fff" stroke="#fff" stroke-miterlimit="10" stroke-width="1.01"/><path d="M142.93,263.83a39,39,0,0,1,10.84,0c5.19.89,11.27,6.31,18.19,7.66s23.47-9.29,23.47-9.29a93.27,93.27,0,0,1,12-3c5-.72,11.82,4.62,11.82,4.62s3.26.13-.26,3.76-2.29,6.56-16.65,7.09-17.7.93-28.28.73-26.63,8.66-28.36,8-4.78-6.45-6-10.56S142.93,263.83,142.93,263.83Z" fill="#e0d08b" stroke="#ddd186" stroke-miterlimit="10" stroke-width="0.75"/><path d="M175.93,261.41a38.57,38.57,0,0,1,10.84,0c5.19.88,11.27,6.3,18.19,7.65s23.47-9.28,23.47-9.28a93.27,93.27,0,0,1,12-3c5-.73,11.82,4.62,11.82,4.62s3.26.12-.26,3.75-2.29,6.56-16.65,7.1-17.7.92-28.28.73-26.63,8.66-28.35,8-4.79-6.44-6-10.56S175.93,261.41,175.93,261.41Z" fill="#e0d08b" stroke="#ddd186" stroke-miterlimit="10" stroke-width="0.75" style="mix-blend-mode:multiply"/><path d="M48.8,252.91v7.31s-1.9.85,0,3.68,8.9,1.32,8.9,1.32,2.92,7,4.59,6.27.54.77,4.1,0,5.88-2.28,13.45-2.78,14.6-.31,21.19,1.6,2.86,3.45,14.14,1.18,16,3.27,16,3.27h3.33s21.33-17.3,8.38-15.55S52.65,257.6,48.8,252.91Z" fill="#dcc971" stroke="#ddd186" stroke-miterlimit="10"/><path d="M51.32,255.46v7.31s-1.9.85,0,3.68,8.89,1.32,8.89,1.32,2.93,7,4.6,6.27.54.77,4.1,0,5.88-2.28,13.45-2.78,14.6-.31,21.18,1.6,2.87,3.45,14.15,1.18,16.05,8.27,16.05,8.27h3.32s21.34-22.3,8.39-20.55S55.17,260.15,51.32,255.46Z" fill="#d8ca90" stroke="#ddd186" stroke-miterlimit="10" style="mix-blend-mode:lighten"/><path d="M131.22,288.72s-37.86-22-47.06-20.5a57.83,57.83,0,0,1-17.77-.11s-6-2.89-8.69-2.89a63.78,63.78,0,0,1-8.9-1.32s-3.67-5.29-1.34,2.82,4,22,4,22l3.34,3.84,38.14,6.22s19.43,2.91,22.23,2.28,7.5,1.71,12.14-.31,12.15-2,12.15-2a11.29,11.29,0,0,0,0-4.5C139,291.72,131.22,288.72,131.22,288.72Z" fill="#e1d154" stroke="#e1d154" stroke-miterlimit="10"/><path d="M134.48,288.72s-37.87-22-47.07-20.5a57.83,57.83,0,0,1-17.77-.11s-6-2.89-8.69-2.89a63.57,63.57,0,0,1-8.89-1.32s-3.68-5.29-1.35,2.82,4,22,4,22l3.35,3.84,38.13,6.22s19.44,2.91,22.23,2.28,7.5,1.71,12.15-.31,12.14-2,12.14-2a11.29,11.29,0,0,0,0-4.5C142.21,291.72,134.48,288.72,134.48,288.72Z" fill="#e1d154" stroke="#e1d154" stroke-miterlimit="10" style="mix-blend-mode:multiply"/><path d="M96.43,280.72s21.79-9.27,32.66-7.88,22,7.88,24.68,7.88,17.19,1.35,22.69,2.68,3,1.32,5.5,3.32,13.26-6.5,11.38,0-2.45,7.5-14.17,7.5-17.74,2-22.23,0-5.54-.5-17.26-3-14.29-4.27-24.51-3.89-16.55,0-16.55,0l-2.19-3.93" fill="#c6b342" stroke="#e1d154" stroke-miterlimit="10" style="mix-blend-mode:multiply"/><path d="M115.17,301.06c3.3.08,79.58-1.44,79.58-1.44s7.21-4.12,9.21-4.51,5.39-1.89,5.45-3.89-.45-17.77-3.95-18.38,1.77,1.06-5.37-.28-6.7-11.11-20.92.28-21.57,20-25.14,20.42-14.35-2-14.35-2-6.2-2.45-8.46-2.5-7.77-.56-10.51-1-19.06,13.2-14.41,12.1A13.69,13.69,0,0,1,115.17,301.06Z" fill="#e1d154" stroke="#e1d154" stroke-miterlimit="10"/><path d="M166.27,300.18s29.51-.6,33.38-.93,10.29-.77,18.13-1.91,8.49-2.23,8.49-2.23l11.52-1.24,2.56-10.47-2.56-2.18s12.54-10.59-9.81-8.78c-1.32.1-2.76.24-4.33.4-28.19,2.88-40.43,7.65-44.48,7.88s-8.21-8.27-11.46-7.88-6.22-3.21-7.57,0-15,11.61-9.11,16.49a121,121,0,0,1,11.25,10.85Z" fill="#e1d154" stroke="#e1d154" stroke-miterlimit="10"/><path d="M166.18,300.18s29.51-.6,33.38-.93,10.3-.77,18.13-1.91,8.49-2.23,8.49-2.23l11.52-1.24,2.56-10.47-2.56-2.18s12.54-10.59-9.81-8.78c-1.32.1-2.75.24-4.32.4-28.2,2.88-40.44,7.65-44.48,7.88s-8.22-8.27-11.47-7.88-6.22-3.21-7.56,0-15,11.61-9.12,16.49a119.56,119.56,0,0,1,11.25,10.85Z" fill="#d1bd45" stroke="#e1d154" stroke-miterlimit="10" style="mix-blend-mode:multiply"/><path d="M238.66,267.39c2.8.33,11.27,0,11.27,0l3.18-8.18-1.27,12.28-4,19.57c-7.34,2.18-21.53,4.05-21.53,4.05-5.69,1.77-13.6,3.89-15.23,0s-1.67-6.15-3.63-11.71a35.57,35.57,0,0,1-1.95-10.56h0c9.5-4.12,12.21-5.79,17.6-5.45s9.64,0,12.62,0Z" fill="#e1d154" stroke="#e1d154" stroke-miterlimit="10"/><path d="M237.75,265.46c2.8.34,11.28,0,11.28,0l3.18-8.17-1.28,12.28-4,19.56c-7.34,2.19-21.53,4.06-21.53,4.06-5.69,1.77-13.6,3.89-15.23,0s-1.68-6.16-3.63-11.72a35.41,35.41,0,0,1-2-10.56h0c9.5-4.11,12.22-5.78,17.61-5.45s9.64,0,12.62,0Z" fill="#e1d154" stroke="#e1d154" stroke-miterlimit="10" style="mix-blend-mode:multiply"/><path d="M114.87,301.06c3.3.08,79.58-1.43,79.58-1.43s7.21-4.13,9.21-4.51,5.4-1.89,5.45-3.89-.45-17.77-4-18.39,1.77,1.07-5.36-.27-6.71-11.11-20.92.27-21.58,20-25.15,20.43-14.35-2-14.35-2-6.2-2.46-8.45-2.5-7.78-.56-10.52-1S101.35,300.92,106,299.82A13.76,13.76,0,0,1,114.87,301.06Z" fill="#e1d154" stroke="#e1d154" stroke-miterlimit="10" style="mix-blend-mode:multiply"/><path d="M78,262.72a23.74,23.74,0,0,1,.66,4,26,26,0,0,1,.1,4c-.11,1.35-.41,2.71-.44,4.06a20.34,20.34,0,0,0,.33,4c.24,1.34.43,2.68.54,4s.26,2.68.3,4a51.86,51.86,0,0,1-.4,8.13l-.2,0a33.48,33.48,0,0,1-1.53-8c-.1-1.35-.08-2.71-.06-4.07a37.2,37.2,0,0,1,.25-4.07,22.08,22.08,0,0,0,.12-4.06c-.09-1.35-.43-2.69-.58-4.05a13.64,13.64,0,0,1-.07-2c0-.68,0-1.36.09-2a21.19,21.19,0,0,1,.69-4Z" fill="#ddd186"/><path d="M51.44,258.91a13.66,13.66,0,0,1,1.45,5.45c0,.94-.18,1.9-.1,2.83a10,10,0,0,0,.68,2.72,20.83,20.83,0,0,1,.9,2.66c.26.9.53,1.78.71,2.68a37.06,37.06,0,0,1,.63,5.58l-.19.07A13.94,13.94,0,0,1,53,275.74a19.06,19.06,0,0,1-.48-2.8,16.74,16.74,0,0,1-.13-2.84,11,11,0,0,0-.24-2.81c-.2-.91-.66-1.79-.92-2.7a11.38,11.38,0,0,1-.32-2.79,11,11,0,0,1,.33-2.87Z" fill="#ddd186"/><path d="M148.77,261.29s59.39-2.6,74.88-4.57,29.59-5.1,29.59-5.1.75,5.4-.13,7.59-5.36,4.51-11,3.51-13.67-2.94-13.67-2.94l-6.27,5.68s-41.93,1.75-45.7,3.35-4.75,3.25-8.75,1.36-13.94-1.36-13.94-1.36-20.28-1.26-22.55-1.42a11.48,11.48,0,0,1-3.91-1l1.78-3.67Z" fill="#e9d689" stroke="#ddd186" stroke-miterlimit="10" stroke-width="0.75"/><path d="M148.77,263.81s59.39-2.6,74.88-4.57,29.59-5.11,29.59-5.11.75,5.41-.13,7.6-5.36,4.51-11,3.51-13.67-2.94-13.67-2.94L222.16,268s-41.93,1.75-45.7,3.35-4.75,3.25-8.75,1.36-13.94-1.36-13.94-1.36-20.28-1.26-22.55-1.43a11.21,11.21,0,0,1-3.91-1l1.78-3.66Z" fill="#e9d689" stroke="#ddd186" stroke-miterlimit="10" stroke-width="0.75" style="mix-blend-mode:multiply"/><path d="M231.2,263.21a34.63,34.63,0,0,1,.06,7.27,46.51,46.51,0,0,1-1.21,7.22,23.74,23.74,0,0,1-2.47,7,14.94,14.94,0,0,1-2.35,3,8.82,8.82,0,0,1-3.21,2.1l-.18-.24a43.44,43.44,0,0,0,3.08-6.24c.83-2.11,2-4.12,2.83-6.32a62.14,62.14,0,0,0,2-6.77,40.28,40.28,0,0,0,1.12-7Z" fill="#ddd186"/><path d="M158.61,266.18a11.11,11.11,0,0,1,.9,3.56,11.92,11.92,0,0,1-.11,3.53c-.27,1.16-.82,2.29-1,3.46a11,11,0,0,0,.11,3.52,20.46,20.46,0,0,1,.37,3.54,27.37,27.37,0,0,1,0,3.51,24,24,0,0,1-1.76,6.92h-.3a19.26,19.26,0,0,1-1.14-7.11,25.89,25.89,0,0,1,.41-3.5,19.31,19.31,0,0,1,.82-3.46,10.77,10.77,0,0,0,.57-3.49c0-1.17-.43-2.37-.55-3.54a12.77,12.77,0,0,1,.27-3.49,13.69,13.69,0,0,1,1.14-3.45Z" fill="#ddd186"/><path d="M227.22,252.25l2.57-11.95s5.4-.54,5.74,1.79-2.71,8.52-2.71,8.52a61.86,61.86,0,0,1,10.7-5c4.48-1.32,10.67-.36,9.22,1.81s-7.2,8-9.52,8.7-3.73,1.79-4.88,1.43.14,5.18.14,5.18l5.09-.11-5.42,6.11-3.69-2.47-7.14-1.3s-9.72-2.35-4.48-4.59,2.86,2.64,5.25-2.23S227.22,252.25,227.22,252.25Z" fill="#4eae33" stroke="#4eae33" stroke-miterlimit="10" style="mix-blend-mode:multiply"/><path d="M257.65,243.47,269,248s-.38,5.41-2.74,5.35-7.93-4.12-7.93-4.12a62.18,62.18,0,0,1,3.07,11.39c.54,4.64-1.46,10.57-3.35,8.78s-6.68-8.46-7-10.86-1.13-4-.58-5-5.12-.75-5.12-.75l-.76,5-5.1-6.37,3.06-3.23,2.49-6.81s4-9.18,5.28-3.63-3.08,2.37,1.32,5.55S257.65,243.47,257.65,243.47Z" fill="#4eae33" stroke="#4eae33" stroke-miterlimit="10" style="mix-blend-mode:multiply"/><path d="M224,256l2.57-11.95s5.4-.54,5.74,1.79-2.71,8.52-2.71,8.52a62.26,62.26,0,0,1,10.7-5c4.48-1.32,10.67-.36,9.22,1.81s-7.2,8-9.52,8.7-3.73,1.79-4.87,1.43.13,5.18.13,5.18l5.09-.11L235,272.52l-3.7-2.47-7.14-1.3s-9.72-2.35-4.47-4.59,2.86,2.64,5.25-2.23S224,256,224,256Z" fill="#4eae33" stroke="#4eae33" stroke-miterlimit="10" style="mix-blend-mode:multiply"/><path d="M178.39,268.92s1.72-12.56,4.81-12.61a14.2,14.2,0,0,1,5.16.8s-.13.61,1.36,2.24-.23,2.84,2.3,3.8c1.85.7,7.67-1.39,8.41-2.21,2.72-3,1.1-5.21,1.16-6.09s-7.13-1.19-6.72,2.06,9,3.69,11,2.74.25-2.17,1.22-3.15,2.85-.43,3.63.21.88-1.77.77.63,2.7,1.87.37,4.46-4.38,5-7.7,4.67-5.85,6.42-5.19,7.5l.66,1.09s-1.52,4.56-4.51.27a74.53,74.53,0,0,0-6.22-7.68,2,2,0,0,0-3.16-.7,22.24,22.24,0,0,0-4.47,4.83l-2.06,1.75Z" fill="#4eae33" stroke="#4eae33" stroke-miterlimit="10" style="mix-blend-mode:multiply"/><path d="M195.48,266.47s-1.42,12.61-4.51,12.73a14.46,14.46,0,0,1-5.18-.67s.12-.62-1.41-2.21.16-2.84-2.4-3.74c-1.86-.66-7.63,1.57-8.35,2.41-2.65,3.08-1,5.23-1,6.12s7.16,1,6.67-2.23-9.14-3.47-11.08-2.46-.19,2.17-1.13,3.17-2.85.5-3.64-.12-.83,1.79-.79-.61-2.74-1.81-.47-4.45,4.25-5.1,7.58-4.85,5.69-6.56,5-7.64l-.69-1.07s1.41-4.59,4.51-.38A72.63,72.63,0,0,0,185,268a2,2,0,0,0,3.17.62,22.14,22.14,0,0,0,4.36-4.93l2-1.8Z" fill="#4eae33" stroke="#4eae33" stroke-miterlimit="10" style="mix-blend-mode:multiply"/><path d="M72.54,257l-.92,5.07s-.77,6-3.21,2.52-9.08-8.7-9.08-8.7l-2.49.29S55,252.07,56.25,251s-.76-5,2.24-4.79,2.74-2.51,5.73.43,3.7.27,5.1,1.82A12,12,0,0,1,72,252.29,14.08,14.08,0,0,1,72.54,257Z" fill="#4eae33" stroke="#4eae33" stroke-miterlimit="10"/><path d="M51.53,238.76l-8-9.28s-5,2.1-4.19,4.31S45.83,240,45.83,240a61.74,61.74,0,0,0-11.77.75c-4.57,1-9.55,4.78-7.24,6s10.15,3.61,12.51,3.11,4.14-.21,5-1.07,2.36,4.61,2.36,4.61l-4.53,2.33,7.67,2.79,2.07-3.94L57.53,250s7.42-6.7,1.74-6.17-1.25,3.68-5.68.54S51.53,238.76,51.53,238.76Z" fill="#4eae33" stroke="#4eae33" stroke-miterlimit="10" style="mix-blend-mode:multiply"/><path d="M51.79,241l-7.95-9.28s-5,2.09-4.19,4.31,6.44,6.19,6.44,6.19a62.28,62.28,0,0,0-11.77.74c-4.56,1-9.55,4.78-7.24,6s10.15,3.62,12.51,3.11,4.14-.2,5-1.07,2.36,4.61,2.36,4.61L42.39,258l7.67,2.78,2.07-3.93,5.66-4.54s7.42-6.71,1.74-6.17-1.25,3.68-5.68.53S51.79,241,51.79,241Z" fill="#4eae33" stroke="#4eae33" stroke-miterlimit="10" style="mix-blend-mode:multiply"/><path d="M94.31,254.5s3.57,3.7.47,4.26-3.22,1-3.53,2.25-1.09.36-3.86,2.58-3.62-.88-4.59,1.59.27,8.88-1.38,7.67-2.44.66-2.9-3.32-.42-1.46-.46-4-2.37-5.26-2.37-5.26A3.42,3.42,0,0,0,72.54,257a5,5,0,0,1-4.11-2.91s-2.82-.45-.16-1.39,2.81-2.6,7.68-1.93,9.25,2.58,11.86,3.3A22.84,22.84,0,0,0,94.31,254.5Z" fill="#4eae33" stroke="#4eae33" stroke-miterlimit="10"/><path d="M172.44,276.77s1.64-12.57-1.32-13.43a14.31,14.31,0,0,0-5.19-.59s0,.63-1.9,1.8-.53,2.8-3.23,3.06c-2,.19-7-3.35-7.53-4.34-1.83-3.63.31-5.31.49-6.18s7.19.73,5.94,3.76-9.7,1.17-11.35-.26.33-2.16-.34-3.35-2.65-1.17-3.56-.76-.38-1.94-.91.41-3.1,1.09-1.53,4.2,2.91,6,6.2,6.53,3.95,7.73,3,8.61l-.92.87s.27,4.8,4.29,1.45a72.81,72.81,0,0,1,8-5.77,2,2,0,0,1,3.22.15,22,22,0,0,1,3.05,5.84l1.53,2.23Z" fill="#4eae33" stroke="#4eae33" stroke-miterlimit="10"/><path d="M36.74,248.52s10.24-5.75,17-3.34,96,14.67,103.81,20,5.19,9.34,5.19,9.34l5.33,4.66s4-15.92,11.33-17.29,60-15.89,70.34-17.3,15,0,15,0l-15-4.91h-201S41.4,245.85,36.74,248.52Z" fill="#f3e625" stroke="#f3e625" stroke-miterlimit="10" stroke-width="1.06"/><path d="M36.48,250s10.24-5.75,17-3.34,96,14.67,103.82,20,5.18,9.34,5.18,9.34l5.33,4.66s4-15.92,11.33-17.29,60-15.89,70.34-17.3,15,0,15,0l-15-4.91h-201S41.14,247.35,36.48,250Z" fill="#f3e625" stroke="#f3e625" stroke-miterlimit="10" stroke-width="1.06" style="mix-blend-mode:multiply"/><path d="M163.4,272.93a9.47,9.47,0,0,1-.29-1.42,11.12,11.12,0,0,1,2-8.27c3.33-4.39,1.67-8.23,6.33-7.64s15.67.62,16.67-.06,1.67-2.69,8-3,18.18.27,18.18.27l-31.65,8.14s-4.94-3.1-6.24,1.74-8,13.29-8,13.29l-1.51,4.72" fill="#f3e625" stroke="#f3e625" stroke-miterlimit="10" stroke-width="1.06" style="mix-blend-mode:overlay"/><path d="M80.13,244.26c-.75,0,2.06,1.05.44,1.25,1.09.76,3.45-.12,4.85.07.11,1.15-1.17,2.11,1.31,3.06,3.34.75.52-2.3,3.53-2.32l-2-.37c2.14-1.83,7-.42,10.54-.72,2.59,1.42,4.88,4.3,8.36,3.86-.2.17-1.07.55-.92,1.15.62.57,1.75.32,2.42.11,1.85-1.23-.44-1.81.28-2.79,1.53-.59,3-1.48,5.08-.73l2.54,2.56c1.88-3.08,4.56.09,8.17-.82.63,1.64,4.41-.52,5.05,1.12,1.68,0,.16,4.39,1.47,5.67,2.34,1.11-1.67.69.67,1.8-2.6.56-.66-4.35-4.14-3.91l.15.6c-1.46.89-3.85-1.07-4.89.56-3.7-.47.15-2.33-1.63-3.72-1.11,1.32-5.33,1.67-5.56,3.69l2.89.07c-.47,0-.12.48-.32.65-1.92-2-7.47,5.7-5.78-.15.4-.34,1.41-.11,1.73-.75-.09-1.38-2.09-.76-3.58-.94-1.58,1.36-3.42,3.67-5.78,2.78-.82-.39-.29-1.2-1.11-1.6-4.94,1.33-4.61-1.93-9.77-1.42-3.14-1.81-7.12-.74-10.26-2.54.44,1.24-2.15.49-2.79.3a4.21,4.21,0,0,0-3.46-1.23c.76,0,.32-.58.86-.87-2.9.49-3.35-1.42-3.46-2.57C77.24,245.43,77.55,243.51,80.13,244.26Z" fill="#e41717"/><path d="M138.83,248.73c-.66,2.46,4.84,1,2.19,3.65a3.47,3.47,0,0,0,3.56-.59c-2-.92.5-.34-.54-1.49a77.5,77.5,0,0,1,18.64-.36c4.4,2,8.41.37,12.73-1.32,2.6.78.84,2.58.2,3.88l3.31.17-3.39,1.47c-.13,1,1.36,1.07,2.17,1.81l.94-.21c-1.23,4.44-6.61-.33-9.8.87,3.8-.19-.55-1.49,1.08-2.33l-1.18-.19c1.06,0,3.19-1.2,5.94-1.37-7.6-.79-15.22.73-21.54,2.65.19-.27.69-.62.13-1-2.24-.18-3.64,2.22-4.65,2.92l1-.7c-1.36-1.07-3.69.39-5.38.54-1.79-1.2-3-2.55-6.08-1.83l.14-.95-2.49-.59c.63-.14.38-.55.26-.75.19-.28.31-.07.75.06.21-1.44-1-3.47-2.36-4.54a2.68,2.68,0,0,0,1.18.19c-1.11-.67-5-1.85-3-3.24C136,245.7,135.77,249,138.83,248.73Z" fill="#e41717"/><path d="M124.28,254.76c2.37.89-.72,1-.22,2l-2.15,0C121.88,255.73,124,255.71,124.28,254.76Z" fill="#e41717"/><path d="M190.17,248.91c.18.89,1.74.53,2.6.79,1.76-.64,2.2-1.66,4.69-1.08-2,2.55,2,3.25,3.7,4.93-1.25.29-3.57,1.75-5.49.34.26-.75-1.49-1.28-2.35-1.54-1.39,1.24,1,3.94-4.53,4.28-1-.46-3.49.11-3.29-1.32-.68-.54-1.39,1.25-2.12,0l-.37-.61,3.44-.8c.12.21.36.61.68.54-.62-1,3.75-2,1.59-3.83l-4.67-.08c-1.12-.67.51-1.51,2.19-1.67C188.66,250,188.54,249.75,190.17,248.91Z" fill="#e41717"/><polygon points="178.42 251.85 178.18 251.45 182.3 251.19 178.42 251.85" fill="#e41717"/><path d="M205.43,248.86c-.82.42-1.5-.12-2.31.3l-.05-1.84Z" fill="#e41717"/><path d="M162.46,257.85c-1.14,1.65-3.88.66-4.83,2,.75.06.5-.34.7-.62l-1.43-.6C158.72,257.55,160.46,258.07,162.46,257.85Z" fill="#e41717"/><path d="M213.52,249.3c2.74-.16,3.31-2.15,6.48-1,.69.54-.87.9.12,1.36s1.25-.29,1.75-.63l-.37-.61c.74,1.22,3.16,2.27,1.85,4.2-4-.7-5.94,3.69-9,1.61l-.49-2-1.87.44c-.13-.21-.06-.69-.69-.54-1.31.76.93.94.8,1.9l-3.62,1.06c-.43-.13.38-.55.26-.75-1.68-1-2.82,1.81-4.24,0l2.25-1a24.64,24.64,0,0,1-6.53-2C205.59,252.06,208.68,247.18,213.52,249.3Z" fill="#e41717"/><path d="M97,260.57s6.8-10.7,9.63-9.45A14.26,14.26,0,0,1,111,254s-.37.51.3,2.6-1.39,2.49.51,4.42c1.39,1.41,7.55,1.94,8.57,1.5,3.73-1.61,3.16-4.27,3.59-5.05s-6-4.06-7-.93,6.69,7.13,8.87,7.08,1.13-1.87,2.41-2.35,2.78.8,3.22,1.7,1.53-1.24.44.9,1.67,2.82-1.53,4.2-6.06,2.71-8.94,1-8,3.4-7.85,4.66l.15,1.27s-3.29,3.5-4.22-1.64a73.39,73.39,0,0,0-2.45-9.58,2,2,0,0,0-2.57-1.94,22.19,22.19,0,0,0-6.09,2.52l-2.6.73Z" fill="#4eae33" stroke="#4eae33" stroke-miterlimit="10"/><path d="M226.32,246.51l5.45-1.78,4.64,3.49,1.76,5.39s-2.4,2.53-4.31,1.4-5.58-4.13-5.81-3.19-3.82,4-2,6.52a27.61,27.61,0,0,1,4,8.15c1,3.09,6.58,3.73-.17,4.18s-8.63-1-9.15-2.63-.4-2.32-1.24-3.8-2.93-2.55-4.19-3.19-.05-1.21-6.09-.38-5.49,1.81-8.07,1.06-5.64,3.47-2.58-.75-4-7.71,6.21-7.46,10.67,1.53,13.94.81,4-6,4-6Z" fill="#4eae33" stroke="#4eae33" stroke-miterlimit="10"/><path d="M110.56,271.33l-9,.17s-6-3.74-2-5.56,10.37-2.75,11.58-4.27,1.77-6.77,1.77-6.77,5.09,1.28,5.23,1.65a4.23,4.23,0,0,1-.74,2.81c-.71,1,.42,6.25,2.47,5.75s4.67,4,4.67,4-2.17,5.69-5,1.85-2.89-7.41-5.91-3.51-5,5.06-5,5.06" fill="#4eae33" stroke="#4eae33" stroke-miterlimit="10" style="mix-blend-mode:multiply"/><path d="M195.51,258.68l7.78,4.52s3.2,6.32-1.14,5.81-10.29-3-12.12-2.37-5,4.88-5,4.88-3.68-3.75-3.61-4.13a4.31,4.31,0,0,1,2.1-2c1.11-.46,2.88-5.55.87-6.19s-1.92-5.82-1.92-5.82,4.81-3.73,5.23,1-1.37,7.83,3.23,6.06,6.91-1.72,6.91-1.72" fill="#4eae33" stroke="#4eae33" stroke-miterlimit="10"/><path d="M197.72,261.78l7.77,4.52s3.2,6.32-1.13,5.81-10.3-3-12.12-2.37-5,4.88-5,4.88-3.69-3.75-3.61-4.13a4.24,4.24,0,0,1,2.09-2c1.11-.46,2.89-5.55.88-6.19s-1.92-5.82-1.92-5.82,4.8-3.73,5.23,1-1.38,7.83,3.23,6.07,6.9-1.73,6.9-1.73" fill="#4eae33" stroke="#4eae33" stroke-miterlimit="10" style="mix-blend-mode:multiply"/><path d="M121.14,256l5.69.69,2.74,5.12-.69,5.63s-3.25,1.28-4.5-.55-3.31-6.11-3.92-5.35-5.16,2-4.55,5.07a27.35,27.35,0,0,1,.21,9.09c-.39,3.23,4.39,6.17-1.91,3.72s-7.38-4.59-7.18-6.25.61-2.27.48-4-1.58-3.55-2.45-4.66.47-1.12-5.36-2.92S94,261,91.94,259.17s-6.58.76-2-1.77-.4-8.69,8.79-4.13,9,5.89,12.28,6.63,6.19-3.73,6.19-3.73Z" fill="#4eae33" stroke="#4eae33" stroke-miterlimit="10" style="mix-blend-mode:multiply"/><path d="M71.12,259.47l-.92,5.07s-.77,6-3.21,2.53-9.08-8.7-9.08-8.7l-2.49.28s-1.87-4.12-.59-5.15-.76-5,2.24-4.8,2.74-2.5,5.73.44,3.7.27,5.1,1.82a12.16,12.16,0,0,1,2.68,3.79A14.21,14.21,0,0,1,71.12,259.47Z" fill="#4eae33" stroke="#4eae33" stroke-miterlimit="10" style="mix-blend-mode:multiply"/><path d="M50.77,251l-8.11,3.91s-3.68,6.05.69,5.88,10.49-2.22,12.26-1.42,4.64,5.25,4.64,5.25,4-3.44,3.92-3.83a4.25,4.25,0,0,0-1.93-2.18c-1.07-.55-2.44-5.76-.39-6.25s2.37-5.65,2.37-5.65-4.5-4.09-5.3.62.76,7.92-3.69,5.8-6.75-2.26-6.75-2.26" fill="#4eae33" stroke="#4eae33" stroke-miterlimit="10" style="mix-blend-mode:darken"/><path d="M91.91,252s3.56,3.71.46,4.26-3.22,1-3.53,2.25-1.09.37-3.85,2.59-3.63-.88-4.6,1.58.27,8.88-1.38,7.68-2.44.65-2.9-3.32-.42-1.46-.46-4-2.37-5.26-2.37-5.26a3.42,3.42,0,0,0-3.15-3.28,5,5,0,0,1-4.11-2.9s-2.82-.46-.16-1.39,2.81-2.6,7.68-1.94,9.26,2.58,11.86,3.31A23.15,23.15,0,0,0,91.91,252Z" fill="#4eae33" stroke="#4eae33" stroke-miterlimit="10" style="mix-blend-mode:multiply"/><path d="M132.52,278.94s-4.85-1.71-2.33-3.6,2.41-2.36,2.14-3.6.81-.82,2.28-4,3.63-.85,3.39-3.49-4.24-7.8-2.23-7.47,1.89-1.68,4.09,1.66,1,1.11,2.2,3.34,4.48,3.63,4.48,3.63a3.42,3.42,0,0,0,4.29,1.51,5,5,0,0,1,5,.75s2.72-.87.77,1.16-1.34,3.59-6,5.19-9.43,1.86-12.08,2.39A22.93,22.93,0,0,0,132.52,278.94Z" fill="#4eae33" stroke="#4eae33" stroke-miterlimit="10" style="mix-blend-mode:multiply"/><path d="M153.43,260.81s3.56,3.71.47,4.26-3.22,1-3.54,2.25-1.09.37-3.85,2.58-3.62-.87-4.6,1.59.28,8.88-1.37,7.68-2.45.65-2.9-3.32-.43-1.46-.46-4-2.38-5.26-2.38-5.26a3.41,3.41,0,0,0-3.14-3.28,5,5,0,0,1-4.11-2.9s-2.82-.46-.16-1.39,2.8-2.6,7.67-1.94,9.26,2.58,11.86,3.31A23.15,23.15,0,0,0,153.43,260.81Z" fill="#4eae33" stroke="#4eae33" stroke-miterlimit="10" style="mix-blend-mode:multiply"/><path d="M226.66,251.11,232.3,250l4.17,4,1.07,5.57s-2.7,2.21-4.46.85-5-4.8-5.36-3.9-4.3,3.53-2.79,6.22a27.59,27.59,0,0,1,3,8.6c.61,3.19,6.06,4.52-.69,4.12s-8.43-2.11-8.75-3.75-.11-2.35-.75-3.93-2.59-2.89-3.76-3.69.1-1.21-6-1.14-5.67,1.11-8.14,0-6,2.73-2.47-1.07-3-8.16,7.1-6.62,10.39,2.85,13.73,2.55,4.75-5.45,4.75-5.45Z" fill="#4eae33" stroke="#4eae33" stroke-miterlimit="10" style="mix-blend-mode:multiply"/><path d="M179.59,238.49s17,6,25.73.73S229,232.94,231,233h7.77l9.46-1.19s5.63,11.46-11.86,14-32.62,8.77-42.79,7-19-4.18-25.27-5.84a27,27,0,0,1-11-6.53s-1.86-3.63,3.18-4.49S179.59,238.49,179.59,238.49Z" fill="#601f20" stroke="#601f20" stroke-miterlimit="10"/><path d="M128.83,241.32a8.11,8.11,0,0,0,1.94-1.24c2.45-1.94,5.76-5.35,8-5.93,2.88-.75,7.83-.72,11.35,2.27s1.56.9,7.94,2.21,11.24-2.78,15.43-2.15,11.27,1.34,13.46,1.05,10.86.65,12.68-1.05,4.36-1.19,6.3-1.44,7,4.74,7.08,6.15-11.9,8.75-13.38,8.86-2.57.44-11.71,0-41.52.23-41.52.23-12.07,1.47-14.68,1.38-3.68,2.24-8.32-.4-6.29-3.65-6.29-3.65l12.28-6.49" fill="#601f20" stroke="#601f20" stroke-miterlimit="10"/><path d="M134.55,244.05a7.69,7.69,0,0,0,1.94-1.24c2.44-1.93,5.75-5.35,8-5.92,2.88-.75,7.83-.72,11.35,2.27s1.57.9,7.95,2.21,11.23-2.79,15.43-2.15,11.26,1.34,13.46,1.05,10.86.65,12.68-1.05,4.36-1.19,6.29-1.45,7,4.75,7.09,6.16-11.9,8.75-13.38,8.86-2.58.44-11.72,0-41.51.22-41.51.22l-29.3-2.66,12.29-6.49" fill="#601f20" stroke="#601f20" stroke-miterlimit="10" style="mix-blend-mode:multiply"/><path d="M53,242.62l11,3.27s35.73,4.11,38.07,4.27,29.25,1.49,29.63,1.5-3.28,2.72,4.72,0l8-2.71s2.81-.34-4.76-3.34-.24-1.57-7.57-3-3.07-3.38-8.71-2.85-13.88.73-18.63-.27-24.66-2.48-30.66-3-15.91-3.2-17.79-3.53-3.41-3.19-3.41-3.19S47.93,237.62,53,242.62Z" fill="#601f20" stroke="#601f20" stroke-miterlimit="10"/><path d="M60.68,222.28A8.25,8.25,0,0,0,55.56,224C53,226,58.38,230,66.39,230H90.72c3,0,3.72-2.67,8.37,0s8.36,7.67,11.51,7.16l3.14-.5s16,2.41,20,.54,10.52-7.08,10.52-7.08l-17-2.4a129.8,129.8,0,0,0-16-1.33c-10.82-.39-34-4.07-34-4.07Z" fill="#56231f" stroke="#56231f" stroke-miterlimit="10"/><path d="M58,225.61a8.25,8.25,0,0,0-5.12,1.74c-2.55,1.93,2.82,5.93,10.84,5.93H88.07c3,0,3.72-2.67,8.37,0S104.8,241,108,240.45l3.15-.5s16,2.4,20,.53,10.52-7.08,10.52-7.08l-17-2.39a126.91,126.91,0,0,0-16-1.33c-10.83-.4-34-4.07-34-4.07Z" fill="#56231f" stroke="#56231f" stroke-miterlimit="10" style="mix-blend-mode:multiply"/><path d="M160.56,228.63c.52-.68,27.07-1.58,27.07-1.58a31.85,31.85,0,0,0,6.31.18c3.45-.25,11-.83,13.39-1l18.21-1.49a52.54,52.54,0,0,1,11.26-2.43c5.28-.33,9.69,3.67,9.69,3.67v2.68s.25,4.89-3.75,4.77a129.15,129.15,0,0,0-18.66,0,127.43,127.43,0,0,1-18.18,0l-28.25,3.71s.43,0-10.57,0-12-3.11-14.66-.64S160.56,228.63,160.56,228.63Z" fill="#56231f" stroke="#56231f" stroke-miterlimit="10"/><path d="M162.49,230c.52-.69,27.07-1.59,27.07-1.59a31.37,31.37,0,0,0,6.31.19c3.45-.25,11-.83,13.39-1l18.21-1.49a52.54,52.54,0,0,1,11.27-2.43c5.27-.34,9.68,3.67,9.68,3.67V230s.26,4.89-3.74,4.77a129.29,129.29,0,0,0-18.67,0,127.43,127.43,0,0,1-18.18,0l-28.24,3.71s.42,0-10.58,0-12-3.12-14.65-.64S162.49,230,162.49,230Z" fill="#56231f" stroke="#56231f" stroke-miterlimit="10" style="mix-blend-mode:multiply"/><path d="M129.08,228.45s29.51,1,35,.93,5.74,7.58,20.62,4.79,13.76-6.34,18.31-6.7,5.18.91,8.17,0a8.16,8.16,0,0,1,5.07-.07s12.39,5.56,3.52,6.77-5.15-1.32-18.34.61S158,238.63,158,238.63s-1.19,3-7.89-.74-30.74,0-30.74,0h-7s-8.5-7.78-2-7.44S129.08,228.45,129.08,228.45Z" fill="#471e1c" stroke="#441d1b" stroke-miterlimit="10" style="mix-blend-mode:darken"/><path d="M131.69,228.54,152,229.69s.28-.32,5.38,0,4.71-1,8.08.38,2.8-1.88,3.38,1.33-3.41,3.88-6.59,4.21-.83.95-9.83.86S130.92,235,128.83,235s-.7-1.88-7.39-2.44a49.6,49.6,0,0,1-11-2.06s1-3.64,6-3.4,15.33,3,15.33,3Z" fill="#471e1c" stroke="#441d1b" stroke-miterlimit="10" style="mix-blend-mode:multiply"/><path d="M63.44,223.64c15.53-1.38,9.3,4.79,21.3,6.05s25.86,7.42,25.86,7.42,7.64-.73-10.61,1.39-16.91,5.94-25.91,2.69-14.34-2.84-17-4.71A44.73,44.73,0,0,0,52,233.4S47.92,225,63.44,223.64Z" fill="#471e1c" stroke="#441d1b" stroke-miterlimit="10" style="mix-blend-mode:multiply"/><path d="M80.85,246.28c3.23,0,17.25-1,19.74,0s4.81,1,9.82,2,0,.76,9,.71,18.12,2.84,20,.06,1,1.9,1.86-2.77,15.3-3.65-1.3-5.09-25.62-5.47-40-2.69-25.91-4.76-25.91-4.76l-5.67,3.37s-2.33,3.24,0,4.21S80.85,246.28,80.85,246.28Z" fill="#601f20" stroke="#601f20" stroke-miterlimit="10" style="mix-blend-mode:multiply"/><path d="M170.74,239.76c5.23-.3,25.83-1.13,34.59-2.64s18.34,0,20.21.74,12.29.1,13.25-.74,2.45-2.5,2.45-2.5,23.9-3.72-3.8-2.86S170.74,239.76,170.74,239.76Z" fill="#601f20" stroke="#601f20" stroke-miterlimit="10" style="mix-blend-mode:multiply"/><path d="M207.33,245.83s12.34-.12,18.21,0,16.87-5.93,18.54-6.07a32.84,32.84,0,0,0,5-1.26s2.35-8.19-7.87-6.87-22,2.33-23.89,3.16-8.67,10.15-8.67,10.15" fill="#601f20" stroke="#601f20" stroke-miterlimit="10" style="mix-blend-mode:multiply"/><g style="mix-blend-mode:multiply"><path d="M73.73,229.51c11.21-.85,22.5.28,33.54,2.14,2.75.5,5.5,1,8.25,1.59s5.49,1.08,8.25,1.54a163.39,163.39,0,0,0,16.64,2c2.78.25,5.58.26,8.35.42s5.57.11,8.34,0,5.54-.29,8.3-.48a15.72,15.72,0,0,1,2.23-.12,5.17,5.17,0,0,1,2.51.67,11.64,11.64,0,0,1,1.77,1.47,3.76,3.76,0,0,0,1.41.83,23.91,23.91,0,0,0,3.91.62c1.37.13,2.75.23,4.12.3a79.08,79.08,0,0,0,8.29-.08,78,78,0,0,0,16.4-2.84l.07.19a62.62,62.62,0,0,1-16.33,4.22,64.93,64.93,0,0,1-8.48.44c-1.42,0-2.84-.08-4.26-.19a24.75,24.75,0,0,1-4.37-.63,5.77,5.77,0,0,1-2.19-1.26,10.42,10.42,0,0,0-1.43-1.24c-.79-.5-2.06-.41-3.46-.3-2.83.12-5.64.34-8.47.28s-5.63-.15-8.44-.3c-1.4-.1-2.8-.25-4.19-.4s-2.8-.31-4.19-.51c-5.56-.7-11.09-1.64-16.63-2.41S112.56,234,107,233.3,96,231.77,90.42,231.11s-11.09-1.08-16.68-1.4Z" fill="#391311"/></g><g style="mix-blend-mode:multiply"><path d="M107.79,244.43c5.44.15,10.86.38,16.27.63s10.83.47,16.23.8l8.12.54c2.71.17,5.42.32,8.13.38,5.42.15,10.84,0,16.26-.26l16.24-.88c5.41-.32,10.82-.49,15.77-2.2s9.57-4.57,14.37-7.15a55.54,55.54,0,0,1,7.47-3.44,24,24,0,0,1,8.07-1.48v.2c-5.41.64-10.2,3.26-14.76,6.08s-9.16,5.93-14.48,7.81a33.14,33.14,0,0,1-8.18,1.67c-2.76.24-5.48.3-8.19.39q-8.15.27-16.3.09c-5.44-.09-10.86-.19-16.29-.18s-10.87.17-16.3.1-10.86-.45-16.27-.92-10.81-1.12-16.18-2Z" fill="#391311"/></g><g style="mix-blend-mode:multiply"><path d="M58.1,234a52.78,52.78,0,0,1,14.14,1.84C76.83,237,81.44,238,86,239.31s9.06,2.71,13.64,3.93a104.38,104.38,0,0,0,13.82,2.95,21.71,21.71,0,0,0,6.84-.31,24.86,24.86,0,0,0,6.37-2.46,46.22,46.22,0,0,0,5.79-3.81,15.51,15.51,0,0,1,3.18-2,7.42,7.42,0,0,1,4-.53c2.65.42,4.77,1.65,6.88,2.46a11.59,11.59,0,0,0,3.17.82A10.08,10.08,0,0,0,153,240c2.21-.52,4.42-1.53,6.91-1.83a9.48,9.48,0,0,1,3.67.27,5.2,5.2,0,0,1,3,2.06l-.16.12a5.11,5.11,0,0,0-3-1.56,9.84,9.84,0,0,0-3.38.11c-2.22.43-4.28,1.63-6.64,2.35a11.62,11.62,0,0,1-3.76.59,13,13,0,0,1-3.73-.78c-2.32-.78-4.42-1.92-6.49-2.16a5.44,5.44,0,0,0-2.92.36,16.6,16.6,0,0,0-2.79,1.76,47.22,47.22,0,0,1-6.16,3.81,23.82,23.82,0,0,1-6.94,2.35,21,21,0,0,1-7.29-.17c-2.37-.4-4.66-1.07-7-1.66s-4.58-1.19-6.88-1.74c-4.61-1.07-9.27-1.94-13.9-3-2.32-.52-4.62-1.07-6.91-1.67-1.14-.31-2.29-.58-3.43-.91l-3.4-1a85.32,85.32,0,0,0-13.75-3.15Z" fill="#391311"/></g><g style="mix-blend-mode:multiply"><path d="M85.4,224.71c-2.49-.15-5-.26-7.46-.31s-5,0-7.46,0-5,.19-7.44.38a24.37,24.37,0,0,0-3.58.43,3.63,3.63,0,0,0-2.38,1.91,33.15,33.15,0,0,0-2.67,6.72,10.86,10.86,0,0,0,0,6.79,5.94,5.94,0,0,0,2,2.53,8.2,8.2,0,0,0,3.07,1.35,43.57,43.57,0,0,0,7.27.66c5,.26,10,.5,15,1a118.76,118.76,0,0,1,14.8,2.5,68.08,68.08,0,0,0,7.34,1.22,38.22,38.22,0,0,0,7.41,0c4.94-.41,9.85-1.54,15-1.37s10,1.86,14.78,2.3,9.69-.68,14.7-1.23c10-1.19,20-1.24,30-1.23s19.91.09,29.76-1.08A86.59,86.59,0,0,0,244,239.5l.09.18c-8.69,5-18.55,7.74-28.46,9.16s-20,1.61-30,1.66-19.92-.06-29.78,1c-4.88.48-9.91,1.54-15.07.94s-9.76-2.54-14.66-2.79-9.86.58-14.84,1a39.47,39.47,0,0,1-7.53-.06c-2.5-.27-5-.71-7.41-1.21-9.75-2.25-19.71-2.3-29.68-2.46a40,40,0,0,1-7.62-.6,10.06,10.06,0,0,1-3.73-1.63,7.67,7.67,0,0,1-2.55-3.3,9.74,9.74,0,0,1-.64-4,17.18,17.18,0,0,1,.63-3.88,29.9,29.9,0,0,1,1.29-3.62,31.48,31.48,0,0,1,1.69-3.46,6.06,6.06,0,0,1,1.39-1.62,5,5,0,0,1,2-.91,25.05,25.05,0,0,1,3.86-.33q3.75-.15,7.51-.11a122.22,122.22,0,0,1,14.94,1.13Z" fill="#391311"/></g><path d="M246.63,237.52s1.44-6.36,4.4-5.92,5.07-5.14,5.07-5.14l4.7.7-4.94,7.69,3.11,4.51s1.68,4-1.6,2.29-10.43.46-10.43.46Z" fill="#4eae33" stroke="#4eae33" stroke-miterlimit="10"/><path d="M246.41,239s1.44-6.36,4.4-5.91,5.07-5.15,5.07-5.15l4.7.7-4.94,7.69,3.11,4.51s1.67,4-1.6,2.29-10.44.46-10.44.46Z" fill="#4eae33" stroke="#4eae33" stroke-miterlimit="10" style="mix-blend-mode:multiply"/><path d="M143.61,205.77a38.92,38.92,0,0,1,10.83,0c5.19.88,11.27,4.3,18.19,5.66s23.47-7.29,23.47-7.29a93.61,93.61,0,0,1,12-3c5-.73,11.82,4.62,11.82,4.62s3.25-1.88-.26,1.75-2.3,6.56-16.66,7.1-17.7.92-28.28.73-26.63,8.66-28.35,8-4.78-6.44-6-10.56S143.61,205.77,143.61,205.77Z" fill="#e0d08b" stroke="#ddd186" stroke-miterlimit="10" stroke-width="0.75"/><path d="M176.61,203.34a39,39,0,0,1,10.84,0c5.18.89,11.27,4.31,18.18,5.66s23.47-7.29,23.47-7.29a93.61,93.61,0,0,1,12-3c5-.72,11.82,4.62,11.82,4.62s3.25-1.87-.26,1.76-2.3,6.56-16.66,7.09-17.69.93-28.28.73-26.62,8.66-28.35,8-4.78-6.45-6-10.56S176.61,203.34,176.61,203.34Z" fill="#e0d08b" stroke="#ddd186" stroke-miterlimit="10" stroke-width="0.75" style="mix-blend-mode:multiply"/><path d="M49.48,194.85v7.3s-1.9.86,0,3.68,8.89-.68,8.89-.68,2.93,7,4.59,6.28.54.77,4.11,0,5.87-2.29,13.44-2.78,14.6-.31,21.19,1.6,2.86,3.45,14.15,1.18,16.05,3.26,16.05,3.26h3.32s21.34-15.3,8.39-13.54S53.33,199.54,49.48,194.85Z" fill="#dcc971" stroke="#ddd186" stroke-miterlimit="10"/><path d="M52,197.4v7.3s-1.91-1.14,0,1.68,8.89,1.32,8.89,1.32,2.93,7.05,4.59,6.28.54.77,4.11,0,5.87-2.29,13.44-2.78,14.6-.31,21.19,1.6,2.86,3.45,14.15,1.18,16,8.26,16,8.26h3.32s21.34-20.3,8.38-18.54S55.85,202.09,52,197.4Z" fill="#d8ca90" stroke="#ddd186" stroke-miterlimit="10" style="mix-blend-mode:lighten"/><path d="M131.9,222.65s-37.87-16-47.07-14.5a57.94,57.94,0,0,1-17.76-.1s-6-2.9-8.7-2.9-8.89.68-8.89.68-3.68-7.28-1.35.82,4,16,4,16l3.35,3.84,38.14,6.23s19.43,2.9,22.23,2.27,7.5,1.72,12.14-.31,12.14-2,12.14-2a11.29,11.29,0,0,0,0-4.5C139.63,225.65,131.9,222.65,131.9,222.65Z" fill="#e1d154" stroke="#e1d154" stroke-miterlimit="10"/><path d="M135.15,222.65s-37.87-16-47.07-14.5a57.94,57.94,0,0,1-17.76-.1s-6-2.9-8.7-2.9-8.89.68-8.89.68-3.68-7.28-1.35.82,4,16,4,16l3.35,3.84,38.14,6.23s19.43,2.9,22.23,2.27,7.5,1.72,12.14-.31,12.14-2,12.14-2a11.29,11.29,0,0,0,0-4.5C142.88,225.65,135.15,222.65,135.15,222.65Z" fill="#e1d154" stroke="#e1d154" stroke-miterlimit="10" style="mix-blend-mode:multiply"/><path d="M97.11,220.65s21.78-9.26,32.65-7.88,22,7.88,24.68,7.88,17.19,1.36,22.69,2.68,3-4.68,5.5-2.68,13.27-6.5,11.38,0-2.45,7.5-14.16,7.5-17.75,2-22.23,0-5.54-.5-17.27-3-14.29-4.27-24.5-3.88-16.56,0-16.56,0l-2.18,2.06" fill="#c6b342" stroke="#e1d154" stroke-miterlimit="10" style="mix-blend-mode:multiply"/><path d="M115.85,235c3.29.08,79.57-1.43,79.57-1.43s7.21-4.13,9.21-4.52,5.4-1.89,5.45-3.89-.45-11.76-4-12.38,1.78,1.07-5.36-.27-6.71-11.11-20.92.27-21.57,14-25.15,14.43-14.35-2-14.35-2-6.2-2.45-8.45-2.5a105.28,105.28,0,0,1-10.52-1c-2.74-.44-19.06,13.19-14.4,12.09A13.71,13.71,0,0,1,115.85,235Z" fill="#e1d154" stroke="#e1d154" stroke-miterlimit="10"/><path d="M166.94,234.11s29.51-.59,33.39-.93,10.29-.76,18.12-1.91,8.49-2.23,8.49-2.23l11.52-1.23,2.56-4.48-2.56-2.18s12.54-10.58-9.81-8.78c-1.32.11-2.75.24-4.32.4-28.2,2.88-40.44,7.65-44.48,7.88s-8.22-8.26-11.47-7.88-6.22-3.21-7.56,0-15,5.61-9.11,10.5A119.35,119.35,0,0,1,163,234.11Z" fill="#e1d154" stroke="#e1d154" stroke-miterlimit="10"/><path d="M166.86,234.11s29.51-.59,33.38-.93,10.29-.76,18.13-1.91,8.49-2.23,8.49-2.23l11.52-1.23,2.55-4.48-2.55-2.18s12.54-10.58-9.82-8.78c-1.31.11-2.75.24-4.32.4-28.2,2.88-40.43,7.65-44.48,7.88s-8.22-8.26-11.47-7.88-6.22-3.21-7.56,0-15,5.61-9.11,10.5a119.35,119.35,0,0,1,11.24,10.84Z" fill="#d1bd45" stroke="#e1d154" stroke-miterlimit="10" style="mix-blend-mode:multiply"/><path d="M239.33,207.32c2.8.33,11.27,0,11.27,0l3.18-6.17-1.27,10.28-4,13.56c-7.34,2.18-21.54,4-21.54,4-5.69,1.78-13.6,3.89-15.23,0s-1.67-.15-3.62-5.71a35.41,35.41,0,0,1-2-10.56h0c9.5-4.12,12.21-5.78,17.61-5.45s9.64,0,12.61,0Z" fill="#e1d154" stroke="#e1d154" stroke-miterlimit="10"/><path d="M238.43,205.4c2.8.33,11.27,0,11.27,0l3.18-6.17-1.27,10.27-4,13.57c-7.35,2.18-21.54,4.05-21.54,4.05-5.69,1.77-13.6,3.89-15.23,0s-1.67-.15-3.63-5.71a35.57,35.57,0,0,1-2-10.56h0c9.5-4.12,12.21-5.79,17.6-5.45s9.65,0,12.62,0Z" fill="#e1d154" stroke="#e1d154" stroke-miterlimit="10" style="mix-blend-mode:multiply"/><path d="M115.55,235c3.3.08,79.57-1.43,79.57-1.43s7.21-4.13,9.21-4.52,5.4-1.89,5.45-3.89-.45-11.77-3.95-12.38,1.78,1.06-5.36-.28-6.7-11.11-20.92.28-21.57,14-25.14,14.43-14.35-2.05-14.35-2.05-6.2-2.45-8.46-2.5-7.77-.56-10.52-1-19,13.2-14.4,12.1A13.71,13.71,0,0,1,115.55,235Z" fill="#e1d154" stroke="#e1d154" stroke-miterlimit="10" style="mix-blend-mode:multiply"/><path d="M78.71,204.66a13.91,13.91,0,0,1,.67,3.05,14.71,14.71,0,0,1,.08,3c-.11,1-.41,2-.44,3.05a12.07,12.07,0,0,0,.34,3,26.27,26.27,0,0,1,.56,3c.13,1,.28,2,.32,3A25.68,25.68,0,0,1,79.8,229l-.2,0a21.79,21.79,0,0,1-1.49-6A28.61,28.61,0,0,1,78,220a21.41,21.41,0,0,1,.24-3.08,13.75,13.75,0,0,0,.11-3.07c-.09-1-.44-2-.59-3a14.64,14.64,0,0,1,.72-6.12Z" fill="#ddd186"/><path d="M52.11,200.84a10.55,10.55,0,0,1,1,2.44,10.23,10.23,0,0,1,.43,2.51,24.91,24.91,0,0,0-.09,2.59,8.21,8.21,0,0,0,.69,2.46,19.06,19.06,0,0,1,.92,2.4c.26.8.54,1.6.72,2.42a26.17,26.17,0,0,1,.61,5.1l-.19.08a12.62,12.62,0,0,1-2.49-4.64,17,17,0,0,1-.49-2.54,14.08,14.08,0,0,1-.15-2.6,9.55,9.55,0,0,0-.25-2.57c-.21-.83-.67-1.62-.93-2.44a9.15,9.15,0,0,1-.32-2.55,8.89,8.89,0,0,1,.34-2.63Z" fill="#ddd186"/><path d="M149.44,203.23s59.4-2.6,74.89-4.57,29.58-5.11,29.58-5.11.75,5.4-.13,7.6-5.36,4.5-11,3.5-13.68-2.94-13.68-2.94l-6.27,3.69s-41.92,1.75-45.7,3.35-4.75,3.25-8.75,1.36-13.94-1.36-13.94-1.36-20.27-1.26-22.54-1.43a11.39,11.39,0,0,1-3.91-1l1.77-1.67Z" fill="#e9d689" stroke="#ddd186" stroke-miterlimit="10" stroke-width="0.75"/><path d="M149.44,205.74s59.4-2.6,74.89-4.57,29.58-5.1,29.58-5.1.75,5.4-.13,7.6-5.36,2.5-11,1.5a92.83,92.83,0,0,0-13.68-.94l-6.27,3.69s-41.92,1.75-45.7,3.34-4.75,3.26-8.75,1.37-13.94-1.37-13.94-1.37-20.27-1.26-22.54-1.42a11.39,11.39,0,0,1-3.91-1l1.77-3.67Z" fill="#e9d689" stroke="#ddd186" stroke-miterlimit="10" stroke-width="0.75" style="mix-blend-mode:multiply"/><path d="M231.88,205.14a19.83,19.83,0,0,1,.14,5.5,19.18,19.18,0,0,1-1.45,5.42,13.64,13.64,0,0,1-2.92,4.88,10.64,10.64,0,0,1-5,2.8l-.18-.24a48.52,48.52,0,0,1,2.85-4.52c.92-1.4,2.17-2.54,3.06-4a22.28,22.28,0,0,0,3.15-9.82Z" fill="#ddd186"/><path d="M159.28,206.11a7.23,7.23,0,0,1,.92,2.83,9.47,9.47,0,0,1,.08,1.4,4.71,4.71,0,0,1-.19,1.39c-.26.91-.82,1.78-1,2.69a6.76,6.76,0,0,0,.09,2.79,13,13,0,0,1,.36,2.8,16.8,16.8,0,0,1-.05,2.75,16.07,16.07,0,0,1-1.73,5.39h-.3a9.53,9.53,0,0,1-.93-2.82,12.85,12.85,0,0,1-.23-2.81,15.2,15.2,0,0,1,.41-2.76,12.38,12.38,0,0,1,.84-2.7,6.67,6.67,0,0,0,.57-2.72,25.67,25.67,0,0,0-.53-2.81,7.6,7.6,0,0,1,.27-2.72,9.59,9.59,0,0,1,1.11-2.7Z" fill="#ddd186"/><path d="M244.5,180.43l6.83-10.13s5.22,1.5,4.66,3.8S250.3,181,250.3,181s7.14-1.06,11.78-.61,10,3.64,7.88,5.11-9.67,4.76-12.07,4.53-4.13.27-5.06-.49-1.81,4.85-1.81,4.85l4.76,1.8-7.3,3.65L246,196.15l-6.14-3.86s-8.14-5.8-2.44-5.92,1.67,3.51,5.71-.12S244.5,180.43,244.5,180.43Z" fill="#4eae33" stroke="#4eae33" stroke-miterlimit="10" style="mix-blend-mode:multiply"/><path d="M244.5,182.7l6.83-10.13s5.22,1.5,4.66,3.79-5.69,6.9-5.69,6.9a62.21,62.21,0,0,1,11.78-.62c4.65.45,10,3.65,7.88,5.12s-9.67,4.76-12.07,4.53-4.13.27-5.06-.49-1.81,4.85-1.81,4.85l4.76,1.8-7.3,3.65L246,198.42l-6.14-3.86s-8.14-5.81-2.44-5.92,1.67,3.51,5.71-.12S244.5,182.7,244.5,182.7Z" fill="#4eae33" stroke="#4eae33" stroke-miterlimit="10" style="mix-blend-mode:multiply"/><path d="M134.15,203.91s8-9.85,10.66-8.29a14.21,14.21,0,0,1,4,3.36s-.43.46,0,2.62-1.67,2.31,0,4.44c1.21,1.56,7.27,2.79,8.33,2.47,3.9-1.16,3.64-3.88,4.16-4.6s-5.49-4.72-6.82-1.72,5.82,7.84,8,8.05,1.33-1.73,2.66-2.06,2.67,1.11,3,2.06,1.67-1.06.34.94,1.33,3-2,4-6.34,2-9,0-8.34,2.45-8.34,3.73v1.27s-3.66,3.11-4-2.11a73.43,73.43,0,0,0-1.33-9.8s.33-2.36-2.33-2.23a22.22,22.22,0,0,0-6.34,1.81l-2.66.42Z" fill="#4eae33" stroke="#4eae33" stroke-miterlimit="10"/><path d="M36.48,191.18s10.24-5.74,17-3.33,96,14.66,103.82,20,5.18,9.33,5.18,9.33l5.33,4.67s4-15.93,11.33-17.3,60-15.89,70.34-17.29,15,0,15,0l-15-4.92h-201S41.14,188.51,36.48,191.18Z" fill="#f3e625" stroke="#f3e625" stroke-miterlimit="10" stroke-width="1.06"/><path d="M36.22,192.68s10.24-5.74,17-3.33,96,14.66,103.82,20,5.18,9.33,5.18,9.33l5.33,4.67s4-15.93,11.33-17.3,60-15.89,70.34-17.29,15,0,15,0l-15-4.92h-201S40.88,190,36.22,192.68Z" fill="#f3e625" stroke="#f3e625" stroke-miterlimit="10" stroke-width="1.06" style="mix-blend-mode:multiply"/><path d="M163.14,215.59a9.47,9.47,0,0,1-.29-1.42,11.1,11.1,0,0,1,2-8.26c3.33-4.4,1.67-8.24,6.33-7.65s15.67.62,16.67-.06,1.67-2.69,8-3,18.18.27,18.18.27l-31.65,8.15s-4.94-3.11-6.24,1.74-8,13.29-8,13.29l-1.51,4.72" fill="#f3e625" stroke="#f3e625" stroke-miterlimit="10" stroke-width="1.06" style="mix-blend-mode:overlay"/><path d="M79.88,186.93c-.76,0,2.05,1,.43,1.24,1.09.76,3.45-.11,4.85.07.11,1.15-1.17,2.12,1.31,3.06,3.34.76.52-2.3,3.54-2.31L88,188.61c2.14-1.83,7-.41,10.54-.72,2.59,1.43,4.88,4.3,8.36,3.86-.2.17-1.07.55-.92,1.16.62.56,1.75.31,2.42.11,1.86-1.23-.44-1.82.28-2.8,1.53-.59,3-1.48,5.08-.73l2.54,2.57c1.88-3.08,4.56.08,8.17-.83.64,1.64,4.41-.52,5,1.13,1.68,0,.16,4.39,1.48,5.66,2.33,1.11-1.68.69.66,1.8-2.6.56-.66-4.35-4.14-3.91l.15.6c-1.46.89-3.85-1.07-4.89.56-3.7-.46.15-2.32-1.62-3.72-1.12,1.33-5.34,1.67-5.57,3.7l2.89.07c-.47,0-.12.47-.32.64-1.92-2-7.47,5.7-5.78-.14.4-.34,1.41-.12,1.73-.76-.09-1.38-2.09-.75-3.57-.94-1.59,1.36-3.43,3.67-5.79,2.79-.81-.4-.29-1.21-1.1-1.61-5,1.33-4.62-1.92-9.78-1.42-3.14-1.81-7.12-.73-10.25-2.54.43,1.24-2.16.49-2.8.3a4.27,4.27,0,0,0-3.46-1.23c.76,0,.32-.58.86-.87-2.9.5-3.35-1.42-3.46-2.57C77,188.09,77.29,186.17,79.88,186.93Z" fill="#e41717"/><path d="M138.57,191.39c-.66,2.47,4.85,1,2.19,3.66a3.52,3.52,0,0,0,3.56-.59c-2-.93.5-.35-.54-1.5a78,78,0,0,1,18.64-.36c4.4,2,8.41.37,12.73-1.32,2.61.79.84,2.58.2,3.88l3.31.17-3.38,1.47c-.14,1,1.35,1.08,2.16,1.82l.94-.22c-1.23,4.45-6.61-.33-9.8.87,3.8-.18-.55-1.49,1.08-2.33l-1.18-.19c1.06,0,3.19-1.2,5.94-1.37-7.6-.79-15.22.74-21.54,2.65.19-.27.69-.62.13-.95-2.24-.18-3.64,2.22-4.65,2.92l1-.7c-1.36-1.07-3.69.39-5.38.55-1.79-1.21-3-2.56-6.08-1.84l.14-.95-2.49-.58c.63-.15.39-.56.26-.76.19-.27.32-.07.75.06.21-1.43-1-3.46-2.36-4.54a2.54,2.54,0,0,0,1.18.19c-1.11-.66-5-1.84-3-3.23C135.69,188.36,135.51,191.64,138.57,191.39Z" fill="#e41717"/><path d="M124,197.43c2.37.88-.72,1-.22,2l-2.15,0C121.62,198.39,123.77,198.37,124,197.43Z" fill="#e41717"/><path d="M189.91,191.58c.18.88,1.74.52,2.61.78,1.75-.63,2.19-1.66,4.68-1.08-2,2.55,2,3.25,3.7,4.93-1.25.29-3.57,1.75-5.49.34.26-.75-1.48-1.27-2.35-1.54-1.39,1.25,1,4-4.53,4.29-1-.47-3.49.11-3.29-1.33-.68-.53-1.38,1.25-2.12,0l-.37-.61,3.44-.79c.12.2.36.61.68.54-.62-1,3.76-2,1.59-3.84l-4.67-.08c-1.12-.67.51-1.51,2.19-1.66C188.4,192.62,188.28,192.41,189.91,191.58Z" fill="#e41717"/><polygon points="178.16 194.52 177.92 194.11 182.04 193.85 178.16 194.52" fill="#e41717"/><path d="M205.17,191.52c-.82.42-1.5-.11-2.31.3l-.05-1.84Z" fill="#e41717"/><path d="M162.2,200.51c-1.14,1.65-3.87.66-4.83,2,.75,0,.5-.35.7-.63l-1.43-.59C158.46,200.21,160.2,200.74,162.2,200.51Z" fill="#e41717"/><path d="M213.26,192c2.74-.17,3.31-2.16,6.48-1,.69.54-.87.9.12,1.37s1.25-.29,1.75-.64l-.37-.61c.74,1.22,3.17,2.27,1.85,4.21-4-.7-5.94,3.68-9,1.61l-.49-2-1.87.43c-.13-.2-.06-.68-.69-.54-1.31.77.93.94.8,1.9l-3.62,1.07c-.43-.13.38-.55.26-.75-1.68-1-2.82,1.8-4.24.05l2.25-1a23.92,23.92,0,0,1-6.53-2C205.33,194.73,208.42,189.85,213.26,192Z" fill="#e41717"/><path d="M225.73,201l1.5,4.93s1.44,5.83,3.47,2.13,8-9.68,8-9.68h2.5s1.39-4.32,0-5.19.17-5.08-2.78-4.51-3-2.17-5.64,1.1-3.65.68-4.87,2.39a12.17,12.17,0,0,0-2.21,4.07A14.22,14.22,0,0,0,225.73,201Z" fill="#4eae33" stroke="#4eae33" stroke-miterlimit="10"/><path d="M84.45,194.58,80.53,183s-5.43.08-5.49,2.44,3.67,8.15,3.67,8.15-6.61-2.91-11.21-3.7-10.63.87-8.94,2.85,8.07,7.14,10.45,7.56,3.91,1.35,5,.86.46,5.15.46,5.15l-5.07.48,6.08,5.45,3.39-2.88,6.94-2.11s9.39-3.45,3.92-5.07-2.54,2.94-5.47-1.62S84.45,194.58,84.45,194.58Z" fill="#4eae33" stroke="#4eae33" stroke-miterlimit="10" style="mix-blend-mode:multiply"/><path d="M206.38,203.91s-8-9.85-10.66-8.29a14.4,14.4,0,0,0-4,3.36s.43.46,0,2.62,1.67,2.31,0,4.44c-1.21,1.56-7.27,2.79-8.33,2.47-3.89-1.16-3.64-3.88-4.15-4.6s5.48-4.72,6.82-1.72-5.83,7.84-8,8.05-1.34-1.73-2.67-2.06-2.67,1.11-3,2.06-1.67-1.06-.33.94-1.34,3,2,4,6.33,2,9,0,8.33,2.45,8.33,3.73v1.27s3.67,3.11,4-2.11a73.43,73.43,0,0,1,1.33-9.8s-.33-2.36,2.34-2.23a22.23,22.23,0,0,1,6.33,1.81l2.67.42Z" fill="#4eae33" stroke="#4eae33" stroke-miterlimit="10"/><path d="M246.65,192.47l8.51,2.95s4.35,5.59,0,5.92-10.69-1-12.35,0-4,5.75-4,5.75-4.34-3-4.34-3.36a4.25,4.25,0,0,1,1.67-2.39c1-.66,1.76-6-.33-6.25s-3-5.33-3-5.33,4-4.59,5.33,0,.15,8,4.33,5.33,6.45-3,6.45-3" fill="#4eae33" stroke="#4eae33" stroke-miterlimit="10" style="mix-blend-mode:multiply"/><path d="M111.35,217.19s10.08,7.7,12.31,5.55a14.41,14.41,0,0,0,3.1-4.2s-.53-.35-.62-2.55-2.16-1.85-1-4.32c.81-1.8,6.42-4.42,7.52-4.36,4.06.22,4.45,2.92,5.12,3.51s-4.23,5.87-6.23,3.27,3.82-9,5.89-9.7,1.7,1.36,3.07,1.37,2.33-1.71,2.44-2.7,1.86.63.1-1,.59-3.23-2.88-3.42-6.63-.46-8.75,2.11-8.68-.42-9-1.66l-.3-1.24s-4.29-2.16-3.39,3a73.44,73.44,0,0,1,1,9.83,2,2,0,0,1-1.74,2.71,22,22,0,0,1-6.58-.26l-2.69.21Z" fill="#4eae33" stroke="#4eae33" stroke-miterlimit="10" style="mix-blend-mode:multiply"/><path d="M51.43,176.56s-1.68-6.29-4.63-5.73-5.26-5-5.26-5l-4.67.88,5.24,7.5-2.94,4.63s-1.52,4.1,1.69,2.22,10.44.06,10.44.06Z" fill="#4eae33" stroke="#4eae33" stroke-miterlimit="10"/><path d="M51.71,178s-1.68-6.3-4.63-5.74-5.26-5-5.26-5l-4.67.89,5.24,7.49-2.94,4.63s-1.52,4.1,1.69,2.22,10.44.06,10.44.06Z" fill="#4eae33" stroke="#4eae33" stroke-miterlimit="10" style="mix-blend-mode:multiply"/><path d="M53.22,189.35l-10.74,5.83s1,5.33,3.33,5,7.41-5,7.41-5a61.73,61.73,0,0,0-1.74,11.67c0,4.66,2.66,10.33,4.33,8.33s5.67-9.17,5.67-11.58.66-4.09,0-5.09,5-1.33,5-1.33l1.33,4.92,4.33-6.92-3.41-2.85-3.25-6.48s-5-8.67-5.67-3,3.33,2-.67,5.66S53.22,189.35,53.22,189.35Z" fill="#4eae33" stroke="#4eae33" stroke-miterlimit="10" style="mix-blend-mode:multiply"/><path d="M88.07,197.93l-3.92-11.57s-5.43.08-5.5,2.43,3.67,8.15,3.67,8.15a62.17,62.17,0,0,0-11.2-3.7c-4.6-.79-10.63.88-9,2.86s8.08,7.14,10.46,7.55,3.91,1.35,5,.87.47,5.15.47,5.15l-5.07.48,6.08,5.44,3.39-2.88,6.94-2.1s9.39-3.46,3.92-5.08-2.54,2.95-5.47-1.62S88.07,197.93,88.07,197.93Z" fill="#4eae33" stroke="#4eae33" stroke-miterlimit="10" style="mix-blend-mode:multiply"/><path d="M87.55,195.42H81.81l-3.33,4.76v5.67s3.07,1.66,4.53,0,4-5.67,4.54-4.85,4.88,2.66,3.9,5.59a27.55,27.55,0,0,0-1.31,9c0,3.26-5.1,5.59,1.45,3.92s7.89-3.66,7.89-5.33-.34-2.33,0-4,2-3.33,3-4.33-.34-1.17,5.66-2.25,5.78,0,8-1.5,6.45,1.54,2.22-1.52,1.45-8.58-8.22-5.16-9.66,4.76-13,5.09-5.69-4.45-5.69-4.45Z" fill="#4eae33" stroke="#4eae33" stroke-miterlimit="10"/><path d="M87.55,196.26H81.81L78.48,201v5.67s3.07,1.66,4.53,0,4-5.67,4.54-4.84,4.88,2.65,3.9,5.58a27.55,27.55,0,0,0-1.31,9c0,3.26-5.1,5.59,1.45,3.92s7.89-3.66,7.89-5.33-.34-2.33,0-4,2-3.33,3-4.33-.34-1.17,5.66-2.25,5.78,0,8-1.5,6.45,1.54,2.22-1.52,1.45-8.58-8.22-5.16-9.66,4.76-13,5.09-5.69-4.45-5.69-4.45Z" fill="#4eae33" stroke="#4eae33" stroke-miterlimit="10"/><path d="M194.16,216.14l9-.85s5.55-4.41,1.4-5.76-10.62-1.55-12-2.92-2.53-6.52-2.53-6.52-4.91,1.86-5,2.24A4.2,4.2,0,0,0,186,205c.81.89.29,6.25-1.8,6s-4.18,4.48-4.18,4.48,2.81,5.4,5.19,1.26,2-7.7,5.47-4.17,5.55,4.45,5.55,4.45" fill="#4eae33" stroke="#4eae33" stroke-miterlimit="10" style="mix-blend-mode:multiply"/><path d="M203.81,201s-3.12,4.09,0,4.28,3.32.65,3.77,1.83,1.13.24,4.13,2.12,3.5-1.28,4.75,1,.75,8.85,2.25,7.47,2.5.37,2.5-3.63.25-1.5,0-4,1.75-5.5,1.75-5.5a3.41,3.41,0,0,1,2.75-3.62,5,5,0,0,0,3.75-3.36s2.75-.78,0-1.4-3.09-2.26-7.85-1-8.9,3.63-11.4,4.65A23,23,0,0,1,203.81,201Z" fill="#4eae33" stroke="#4eae33" stroke-miterlimit="10"/><path d="M205.92,198.24s-3.12,4.09,0,4.29,3.32.64,3.77,1.83,1.12.24,4.12,2.12,3.5-1.29,4.75,1.05.75,8.85,2.25,7.47,2.5.36,2.5-3.64.25-1.5,0-4,1.75-5.5,1.75-5.5a3.42,3.42,0,0,1,2.75-3.62,5,5,0,0,0,3.75-3.36s2.75-.77,0-1.39-3.09-2.26-7.84-1-8.91,3.62-11.41,4.64A22.93,22.93,0,0,1,205.92,198.24Z" fill="#4eae33" stroke="#4eae33" stroke-miterlimit="10" style="mix-blend-mode:multiply"/><path d="M89.55,191.82H83.81l-3.33,4.75v5.67s3.07,1.67,4.53,0,4-5.67,4.54-4.84,4.88,2.65,3.9,5.58a27.61,27.61,0,0,0-1.31,9c0,3.25-5.1,5.58,1.45,3.92s7.89-3.67,7.89-5.34-.34-2.33,0-4,2-3.33,3-4.33-.34-1.17,5.66-2.25,5.78,0,8-1.5,6.45,1.55,2.22-1.52,1.45-8.58-8.22-5.15-9.66,4.75-13,5.09-5.69-4.46-5.69-4.46Z" fill="#4eae33" stroke="#4eae33" stroke-miterlimit="10" style="mix-blend-mode:multiply"/><path d="M120.63,201l-8.5,2.94s-4.36,5.59,0,5.93,10.68-1,12.35,0,4,5.74,4,5.74,4.33-3,4.33-3.35a4.22,4.22,0,0,0-1.67-2.39c-1-.67-1.76-6,.34-6.25s3-5.34,3-5.34-4-4.59-5.34,0-.15,8-4.33,5.34-6.45-3-6.45-3" fill="#4eae33" stroke="#4eae33" stroke-miterlimit="10" style="mix-blend-mode:multiply"/><path d="M110.26,203.11l-8.5,2.95s-4.36,5.59,0,5.92,10.68-1,12.35,0,4,5.75,4,5.75,4.33-3,4.33-3.36a4.25,4.25,0,0,0-1.67-2.39c-1-.66-1.76-6,.34-6.25s3-5.33,3-5.33-4-4.59-5.34,0-.15,7.95-4.33,5.33-6.44-3-6.44-3" fill="#4eae33" stroke="#4eae33" stroke-miterlimit="10" style="mix-blend-mode:multiply"/><path d="M118.38,222.52s10.08,7.7,12.31,5.55a14.41,14.41,0,0,0,3.1-4.2s-.53-.34-.62-2.54-2.16-1.86-1-4.33c.81-1.8,6.41-4.42,7.52-4.36,4.06.22,4.44,2.92,5.12,3.51s-4.23,5.87-6.23,3.27,3.82-9,5.89-9.7,1.7,1.36,3.07,1.37,2.33-1.71,2.44-2.7,1.86.63.1-1,.59-3.23-2.89-3.42-6.62-.45-8.74,2.12-8.68-.43-9-1.67l-.3-1.24s-4.29-2.16-3.39,3a73.44,73.44,0,0,1,1,9.83,2,2,0,0,1-1.74,2.71,22,22,0,0,1-6.58-.26l-2.69.21Z" fill="#4eae33" stroke="#4eae33" stroke-miterlimit="10" style="mix-blend-mode:multiply"/><path d="M181.9,202.14l-5.58,1.34-2.13,5.41,1.33,5.51s3.37.9,4.41-1.06,2.59-6.46,3.27-5.77,5.37,1.44,5.11,4.51a27.3,27.3,0,0,0,.83,9.06c.77,3.16-3.65,6.63,2.33,3.47s6.81-5.41,6.42-7-.87-2.19-.94-3.89,1.16-3.71,1.9-4.91-.6-1.06,5-3.52,5.63-1.33,7.43-3.33,6.63,0,1.81-2-.61-8.67-9.2-3.08-8.29,6.89-11.45,8-6.58-3-6.58-3Z" fill="#4eae33" stroke="#4eae33" stroke-miterlimit="10" style="mix-blend-mode:multiply"/><path d="M227.42,203.25l1.5,4.93s1.44,5.84,3.47,2.14,8-9.69,8-9.69h2.5s1.39-4.31,0-5.18.17-5.08-2.78-4.51-3-2.17-5.64,1.09-3.65.69-4.86,2.39a12.07,12.07,0,0,0-2.22,4.08A14.16,14.16,0,0,0,227.42,203.25Z" fill="#4eae33" stroke="#4eae33" stroke-miterlimit="10" style="mix-blend-mode:multiply"/><path d="M179.25,181.16s17,6,25.72.73,23.65-6.28,25.71-6.27h7.77l9.45-1.19s5.64,11.46-11.85,14-32.62,8.77-42.79,7-19-4.18-25.28-5.84A27,27,0,0,1,157,183.09s-1.87-3.63,3.17-4.49S179.25,181.16,179.25,181.16Z" fill="#601f20" stroke="#601f20" stroke-miterlimit="10"/><path d="M128.49,184a8.11,8.11,0,0,0,1.94-1.24c2.45-1.94,5.76-5.35,8-5.93,2.89-.75,7.84-.72,11.36,2.27s1.56.9,7.94,2.22,11.24-2.79,15.43-2.16,11.27,1.34,13.46,1,10.86.65,12.68-1,4.36-1.19,6.3-1.44,7,4.74,7.08,6.16-11.9,8.74-13.38,8.85-2.57.44-11.72,0S146,193,146,193s-12.07,1.47-14.68,1.38-3.69,2.24-8.32-.4-6.29-3.65-6.29-3.65L129,183.79" fill="#601f20" stroke="#601f20" stroke-miterlimit="10"/><path d="M134.21,186.72a7.69,7.69,0,0,0,1.94-1.24c2.44-1.93,5.75-5.34,8-5.92,2.88-.75,7.83-.72,11.35,2.27s1.57.9,7.95,2.21,11.23-2.79,15.42-2.15,11.27,1.34,13.47,1.05,10.85.65,12.67-1.05,4.37-1.19,6.3-1.45,7,4.75,7.08,6.16-11.89,8.75-13.38,8.86-2.57.44-11.71,0-41.51.22-41.51.22L122.45,193l12.29-6.49" fill="#601f20" stroke="#601f20" stroke-miterlimit="10" style="mix-blend-mode:multiply"/><path d="M52.66,185.29l11,3.27s35.73,4.11,38.08,4.27,29.25,1.49,29.63,1.5-3.28,2.72,4.72,0l8-2.71s2.81-.34-4.76-3.34-.24-1.57-7.57-3-3.08-3.38-8.71-2.85-13.88.73-18.63-.27-24.66-2.48-30.66-3S57.82,176,56,175.62s-3.41-3.19-3.41-3.19S47.59,180.29,52.66,185.29Z" fill="#601f20" stroke="#601f20" stroke-miterlimit="10"/><path d="M60.34,165a8.25,8.25,0,0,0-5.12,1.74c-2.56,1.93,2.82,5.93,10.83,5.93H90.38c3,0,3.71-2.67,8.37,0s8.36,7.67,11.51,7.17l3.14-.51s16,2.41,20,.54,10.52-7.08,10.52-7.08l-17-2.39a128.1,128.1,0,0,0-16-1.34c-10.82-.39-34-4.06-34-4.06Z" fill="#56231f" stroke="#56231f" stroke-miterlimit="10"/><path d="M57.69,168.28A8.25,8.25,0,0,0,52.57,170C50,172,55.39,176,63.41,176H87.73c3,0,3.72-2.67,8.37,0s8.36,7.67,11.51,7.17l3.15-.5s16,2.4,20,.53,10.52-7.08,10.52-7.08l-17-2.39a127.26,127.26,0,0,0-16-1.33c-10.82-.4-34-4.07-34-4.07Z" fill="#56231f" stroke="#56231f" stroke-miterlimit="10" style="mix-blend-mode:multiply"/><path d="M160.21,171.3c.53-.68,27.08-1.58,27.08-1.58a31.85,31.85,0,0,0,6.31.18c3.45-.25,11-.83,13.38-1l18.22-1.49A52.54,52.54,0,0,1,236.46,165c5.28-.33,9.68,3.67,9.68,3.67v2.68s.26,4.89-3.74,4.77a129.15,129.15,0,0,0-18.66,0,125.74,125.74,0,0,1-18.18,0l-28.25,3.72s.42,0-10.57,0-12-3.12-14.66-.65S160.21,171.3,160.21,171.3Z" fill="#56231f" stroke="#56231f" stroke-miterlimit="10"/><path d="M162.15,172.68c.52-.69,27.07-1.59,27.07-1.59a31.37,31.37,0,0,0,6.31.19c3.45-.25,11-.83,13.39-1l18.21-1.49a52.54,52.54,0,0,1,11.27-2.43c5.27-.34,9.68,3.67,9.68,3.67v2.68s.26,4.89-3.74,4.77a129.29,129.29,0,0,0-18.67,0,127.43,127.43,0,0,1-18.18,0l-28.24,3.71s.42,0-10.58,0-12-3.11-14.65-.64S162.15,172.68,162.15,172.68Z" fill="#56231f" stroke="#56231f" stroke-miterlimit="10" style="mix-blend-mode:multiply"/><path d="M128.74,171.12s29.51,1,35,.93,5.74,7.58,20.62,4.8,13.76-6.35,18.31-6.71,5.18.91,8.17,0a8.16,8.16,0,0,1,5.07-.07s12.39,5.56,3.52,6.78-5.15-1.33-18.34.6-43.39,3.86-43.39,3.86-1.19,3-7.89-.75-30.74,0-30.74,0h-7s-8.5-7.78-2-7.44S128.74,171.12,128.74,171.12Z" fill="#471e1c" stroke="#441d1b" stroke-miterlimit="10" style="mix-blend-mode:darken"/><path d="M131.35,171.21l20.31,1.15s.28-.31,5.38,0,4.71-1,8.08.38,2.8-1.88,3.37,1.33-3.4,3.88-6.58,4.21-.83.95-9.83.86-21.5-1.52-23.59-1.52-.7-1.88-7.39-2.44a49.79,49.79,0,0,1-11-2.06s1-3.64,6-3.4,15.33,3,15.33,3Z" fill="#471e1c" stroke="#441d1b" stroke-miterlimit="10" style="mix-blend-mode:multiply"/><path d="M63.1,166.31c15.53-1.38,9.3,4.79,21.3,6.05s25.86,7.43,25.86,7.43,7.64-.74-10.61,1.38-16.91,5.94-25.91,2.7-14.34-2.85-17-4.72a44.73,44.73,0,0,0-5.1-3.08S47.58,167.69,63.1,166.31Z" fill="#471e1c" stroke="#441d1b" stroke-miterlimit="10" style="mix-blend-mode:multiply"/><path d="M80.51,189c3.23,0,17.25-1,19.74,0s4.81,1,9.81,2,.06.76,9,.71,18.11,2.84,20,.06,1,1.9,1.85-2.77,15.31-3.65-1.29-5.08-25.63-5.48-40-2.7-25.91-4.76-25.91-4.76l-5.67,3.38s-2.33,3.23,0,4.2S80.51,189,80.51,189Z" fill="#601f20" stroke="#601f20" stroke-miterlimit="10" style="mix-blend-mode:multiply"/><path d="M170.4,182.43c5.23-.3,25.83-1.13,34.58-2.64s18.34,0,20.22.74,12.29.1,13.25-.74,2.45-2.5,2.45-2.5,23.9-3.72-3.8-2.86S170.4,182.43,170.4,182.43Z" fill="#601f20" stroke="#601f20" stroke-miterlimit="10" style="mix-blend-mode:multiply"/><path d="M207,188.5s12.34-.12,18.22,0,16.87-5.93,18.54-6.07a32.84,32.84,0,0,0,5-1.26s2.35-8.19-7.87-6.87-22,2.33-23.89,3.16-8.67,10.15-8.67,10.15" fill="#601f20" stroke="#601f20" stroke-miterlimit="10" style="mix-blend-mode:multiply"/><g style="mix-blend-mode:multiply"><path d="M73.39,172.18c11.21-.85,22.5.28,33.53,2.15,2.76.49,5.51,1,8.26,1.58s5.49,1.08,8.25,1.54a166.29,166.29,0,0,0,16.64,2c2.78.24,5.57.25,8.35.41s5.57.11,8.34,0,5.54-.29,8.3-.48a15.72,15.72,0,0,1,2.23-.12,5.17,5.17,0,0,1,2.51.67,12.26,12.26,0,0,1,1.77,1.47,3.61,3.61,0,0,0,1.41.83,23.91,23.91,0,0,0,3.91.62c1.37.13,2.74.23,4.12.3a78.87,78.87,0,0,0,8.28-.08,78,78,0,0,0,16.41-2.84l.07.19a62.73,62.73,0,0,1-16.33,4.22,65,65,0,0,1-8.49.44c-1.41,0-2.83-.08-4.25-.19a25,25,0,0,1-4.38-.63,5.8,5.8,0,0,1-2.18-1.26,10.42,10.42,0,0,0-1.43-1.24c-.79-.5-2.07-.41-3.46-.3-2.83.13-5.65.34-8.47.28s-5.63-.15-8.44-.3c-1.4-.1-2.8-.25-4.2-.4s-2.79-.31-4.18-.51c-5.57-.7-11.09-1.64-16.63-2.41s-11.11-1.42-16.66-2.12-11-1.53-16.59-2.19S79,172.7,73.39,172.38Z" fill="#391311"/></g><g style="mix-blend-mode:multiply"><path d="M107.45,187.1c5.44.15,10.86.38,16.27.63s10.82.47,16.23.8l8.12.54c2.71.17,5.41.32,8.13.38,5.42.15,10.84,0,16.26-.26l16.23-.88c5.41-.32,10.83-.49,15.77-2.2s9.58-4.57,14.38-7.15a54.28,54.28,0,0,1,7.47-3.43,23.81,23.81,0,0,1,8.07-1.49v.2c-5.42.64-10.2,3.26-14.77,6.09s-9.16,5.92-14.47,7.8A33.12,33.12,0,0,1,197,189.8c-2.75.24-5.47.3-8.18.39q-8.15.27-16.3.09c-5.44-.09-10.86-.19-16.29-.18s-10.87.17-16.3.1-10.86-.45-16.27-.92-10.82-1.12-16.19-2Z" fill="#391311"/></g><g style="mix-blend-mode:multiply"><path d="M57.75,176.67a52.68,52.68,0,0,1,14.14,1.84c4.6,1.18,9.21,2.19,13.77,3.47s9.06,2.72,13.63,3.93a104.19,104.19,0,0,0,13.83,3,21.42,21.42,0,0,0,6.84-.31,24.86,24.86,0,0,0,6.37-2.46,46.22,46.22,0,0,0,5.79-3.81,15.51,15.51,0,0,1,3.18-2,7.42,7.42,0,0,1,4-.53c2.65.42,4.77,1.65,6.88,2.46a11.26,11.26,0,0,0,3.16.82,10.14,10.14,0,0,0,3.25-.33c2.21-.52,4.42-1.53,6.91-1.83a9.48,9.48,0,0,1,3.67.27,5.23,5.23,0,0,1,3,2.06l-.16.12a5.11,5.11,0,0,0-3-1.56,9.84,9.84,0,0,0-3.38.11c-2.22.43-4.29,1.63-6.64,2.35a11.66,11.66,0,0,1-3.76.59,13,13,0,0,1-3.73-.78c-2.32-.78-4.42-1.92-6.5-2.16a5.41,5.41,0,0,0-2.91.36,16.6,16.6,0,0,0-2.79,1.76,47.9,47.9,0,0,1-6.16,3.81,23.82,23.82,0,0,1-6.94,2.35,21,21,0,0,1-7.29-.17c-2.37-.4-4.66-1.07-7-1.66s-4.58-1.19-6.88-1.74c-4.61-1.07-9.28-1.94-13.91-2.95-2.31-.52-4.61-1.07-6.9-1.67-1.15-.31-2.3-.58-3.43-.91l-3.4-1a84.24,84.24,0,0,0-13.75-3.14Z" fill="#391311"/></g><g style="mix-blend-mode:multiply"><path d="M85.06,167.38c-2.49-.15-5-.26-7.46-.31s-5,0-7.46,0-5,.19-7.44.38a24.2,24.2,0,0,0-3.58.43,3.63,3.63,0,0,0-2.38,1.91,32,32,0,0,0-2.67,6.72,10.86,10.86,0,0,0,0,6.79,6,6,0,0,0,2,2.53,8.2,8.2,0,0,0,3.07,1.35,43.57,43.57,0,0,0,7.27.66c5,.26,10,.5,14.95,1a118.76,118.76,0,0,1,14.8,2.5,70.24,70.24,0,0,0,7.34,1.23,39,39,0,0,0,7.41,0c4.94-.41,9.85-1.54,14.95-1.37s10,1.86,14.77,2.3,9.7-.68,14.7-1.22c10-1.19,20-1.25,30-1.24s19.91.09,29.76-1.08a86.59,86.59,0,0,0,28.58-7.79l.09.18c-8.69,5-18.56,7.75-28.47,9.16s-20,1.61-30,1.66-19.92-.06-29.78,1c-4.88.48-9.91,1.54-15.07.94s-9.77-2.54-14.66-2.79-9.86.58-14.85,1a39.36,39.36,0,0,1-7.52-.06c-2.5-.27-5-.71-7.41-1.21-9.75-2.25-19.71-2.3-29.68-2.46a40,40,0,0,1-7.62-.6A10,10,0,0,1,55,187.31a7.67,7.67,0,0,1-2.55-3.3,9.74,9.74,0,0,1-.64-4,17.28,17.28,0,0,1,.63-3.88,28.29,28.29,0,0,1,1.29-3.62A31.48,31.48,0,0,1,55.41,169a6.06,6.06,0,0,1,1.39-1.62,5,5,0,0,1,2-.91,25,25,0,0,1,3.85-.33q3.76-.15,7.51-.11a124.25,124.25,0,0,1,15,1.13Z" fill="#391311"/></g><path d="M130.56,175.52s16.85.3,17.68,0,5.06-4,5.06-4,.58,0-1.2-1.52-.57-5.59-6.73-3.72-16.3,6.09-16.3,6.09.89.18-.67,1.11S130.56,175.52,130.56,175.52Z" fill="#b09c2a" stroke="#b09c2a" stroke-miterlimit="10"/><path d="M168.1,174.44s16.85.3,17.68,0,5.06-4,5.06-4,.58,0-1.2-1.52-.57-5.59-6.73-3.72-16.3,6.09-16.3,6.09.89.18-.67,1.11S168.1,174.44,168.1,174.44Z" fill="#b09c2a" stroke="#b09c2a" stroke-miterlimit="10"/><path d="M146.51,172.77s.38-3.5,6.75-5,7.18-4.5,12-2,11.68,8.5,14,7,1.3-1.73,7.57-3.87,13.52-4.1,13.52-4.1-1-1.53.88-3,9.31-3.5,9.31-3.5,5.88-3.5,8.21-4,8.3,3,10.32,5,8.8,2,8.8,2h2.16a26,26,0,0,0,7.22-1.54l1.77,3.88v4.66s-13.91,3-19.95,3.76-34,2.74-36.48,4.24-38.58,2-38.58,2Z" fill="#d8ca90" stroke="#ddd186" stroke-miterlimit="10"/><path d="M145.3,170.77s.38-3.5,6.75-5,7.19-4.5,12-2,11.68,8.5,14,7,1.3-1.73,7.56-3.87,13.52-4.1,13.52-4.1-1-1.53.89-3,9.31-3.5,9.31-3.5,5.87-3.5,8.21-4,8.3,3,10.32,5,8.79,2,8.79,2h2.16a25.87,25.87,0,0,0,7.22-1.54l1.78,3.88v4.66s-13.91,3-20,3.76-34,2.74-36.48,4.24-38.58,2-38.58,2Z" fill="#e9d689" stroke="#ddd186" stroke-miterlimit="10" stroke-width="0.75" style="mix-blend-mode:multiply"/><path d="M145.3,168.81s.38-3.5,6.75-5,7.19-4.5,12-2,11.68,8.5,14,7,1.3-1.72,7.56-3.86,13.52-4.1,13.52-4.1-1-1.54.89-3,9.31-3.5,9.31-3.5,5.87-3.5,8.21-4,8.3,3,10.32,5,8.79,2,8.79,2h2.16a26,26,0,0,0,7.22-1.53l1.78,3.87v4.66s-13.91,3-20,3.76-34,2.74-36.48,4.24-38.58,2-38.58,2Z" fill="#e9d689" stroke="#ddd186" stroke-miterlimit="10" stroke-width="0.75" style="mix-blend-mode:multiply"/><path d="M52.07,165.27a33.34,33.34,0,0,0,7.1,2c3.13.36,8.1,1,15.12,1.36s9.59,1.33,11.47,1.33,8.85-2,9.36-2.33-2.06-3,5.9-.36,12.73,5.69,14.84,5.69,9.83-2.33,13.47,0,5.62,2.67,7.3,2.67-6.58,2.67-12.39,1.67-28.06.12-29.78-1.34-22.58-3.68-22.58-3.68-11,.22-12.45-.87c-.74-.56-5.63-1.13-7.31-2.54S52.07,165.27,52.07,165.27Z" fill="#d8ca90" stroke="#ddd186" stroke-miterlimit="10"/><path d="M51.06,160.94a33.27,33.27,0,0,0,7.11,2c3.13.36,8.09,1,15.11,1.36s9.6,1.33,11.47,1.33,8.85-2,9.37-2.33-2.06-3.05,5.89-.36,12.73,5.69,14.84,5.69,9.83-2.33,13.47,0,5.62,2.67,7.3,2.67-6.58,2.66-12.39,1.66-28.06.13-29.78-1.33-22.58-3.68-22.58-3.68-11,.22-12.44-.87c-.75-.56-5.64-1.13-7.32-2.54S51.06,160.94,51.06,160.94Z" fill="#d8ca90" stroke="#ddd186" stroke-miterlimit="10" style="mix-blend-mode:lighten"/><path d="M100,172.93c7.95,1,20.16,3.67,23.22,3.34s17.06-.17,19.4-.13,30,.35,30,.35l10.35-.56,1.58-1.22s-5.37-1.93-7.64-2-1.31-2.25-9.46,0-11.8,4.49-16.36,2.28-9.55-1.41-12.5-.89-5.6.54-7.93-.81-11.62-1.86-13.71-1.6-8.68.77-10.06-1.29S100,172.93,100,172.93Z" fill="#d8ca90" stroke="#ddd186" stroke-miterlimit="10"/><path d="M100,171.14c7.95,1,20.16,3.67,23.22,3.33s17.06-.16,19.4-.12l30,.35,10.35-.56,1.58-1.22s-5.37-1.93-7.64-2-1.31-2.25-9.46,0-11.8,4.49-16.36,2.28-9.55-1.41-12.5-.89-5.6.54-7.93-.81-11.62-1.86-13.71-1.6-8.68.77-10.06-1.29S100,171.14,100,171.14Z" fill="#e9d689" stroke="#ddd186" stroke-miterlimit="10" stroke-width="0.75" style="mix-blend-mode:multiply"/><path d="M163.32,143.27h-16c-7.67,0-9.62,5-19,5.85a90.07,90.07,0,0,0-18.84,4.1l-13.36,2s-2.16.71-2.82,2.05-8.67,2.66-8.67,2.66-5.46,3.94-1.67,5.31-5-.37,7,.81,22.74,6.88,26.85,6.88,6.78,1.7,18.62.27,23-1.41,31.82-1.82,15.61-1.71,17.22-2.32,15-.51,19.75-1.82,5.57-1,5.8-4,7.62,2.23-1.57-8.05S196.63,140.6,195,140.27s-1.75.66-3.21,0,3.21-4.48-7.12-.08-17.06,4.74-19.53,4.74S163.32,143.27,163.32,143.27Z" fill="#e1d154" stroke="#e1d154" stroke-miterlimit="10" style="mix-blend-mode:multiply"/><path d="M163.3,120.63c1.4.11,10.76,5.3,17,6.3s9.52,4.34,9.4,5.34,5.21,0-.12,1-3.33-2.67-7.67,0a16.17,16.17,0,0,0-6.75,8.33c-.82,2.07-2.08,5-.16,6.52s13.49,4.38,14.7,4.1-2.28-1.05,9.47,0,40.85,9.05,40.85,9.05,6.43,3.68,4.26-3-9.84-14.51-9.84-14.51S217,130.67,201.27,127,163.3,120.63,163.3,120.63Z" fill="#e1d154" stroke="#e1d154" stroke-miterlimit="10"/><path d="M167.85,124.17c1.39.1,10.76,5.3,17.05,6.3s9.52,4.33,9.4,5.33,5.21,0-.12,1-3.33-2.66-7.67,0a16.22,16.22,0,0,0-6.75,8.34c-.82,2.07-2.08,5-.16,6.52s13.49,4.38,14.7,4.09-2.29-1,9.46,0,40.86,9.05,40.86,9.05,6.43,3.69,4.26-3S239,147.33,239,147.33s-17.48-13.12-33.22-16.79S167.85,124.17,167.85,124.17Z" fill="#e1d154" stroke="#e1d154" stroke-miterlimit="10" style="mix-blend-mode:multiply"/><path d="M116.47,158a2.14,2.14,0,0,0,1.94.24c2.27-.6,34.39,17.78,27.21-1.24-3.34-8.86,11.85-8.95,14.47-8.86s33.76-4.07,33.76-4.07l7.32-2.48s12.65-1.54,11.22,6.8,4.9,10-14.1,15-23.11,7.24-52.72,9.45-45.47-8.45-45.47-8.45,10.55-6.43,12.37-5.39" fill="#e1d154" stroke="#e1d154" stroke-miterlimit="10" style="mix-blend-mode:multiply"/><path d="M120.88,154.22c-7.23-.55-33.67-8.16-37.13-7.22s-8,3.39-11.22,0l-3.23-3.4-1.39-3.5s-7.62,5.47-7.84,6.9.08.38-2.64,4.38-4.17,6.56-4.17,6.56l-1.42,3s7.46,5.58,22.12,5.27,37.34,0,37.34,0l18-3.3s-1.58-3-1.94-3.65S120.88,154.22,120.88,154.22Z" fill="#e1d154" stroke="#e1d154" stroke-miterlimit="10"/><path d="M127.47,149.16c-7.23-.55-33.67-8.15-37.13-7.22s-8,3.4-11.22,0l-3.23-3.4-1.39-3.49s-7.62,5.47-7.84,6.89.08.38-2.65,4.38-4.16,6.56-4.16,6.56l-1.42,3s7.46,5.58,22.12,5.28,37.34,0,37.34,0l18-3.3s-1.58-3-1.94-3.66S127.47,149.16,127.47,149.16Z" fill="#e1d154" stroke="#e1d154" stroke-miterlimit="10" style="mix-blend-mode:multiply"/><path d="M114.92,154.22c3,.71,20.92,2.25,34.17-2s20-17.17,20-17.17,2.11-2.12-1.7-4.78-8.48-6.34-4.14-8,11.46-4.5,17,0,9.53,11,11.07,10.49,15.59.4,15.07,2.29,7.78,7.68-8.71,9.95-29.92,9.63-45.95,14.6-46.35,4.64-46.35,4.64-6.32-2.88-1.16-7A14.25,14.25,0,0,1,114.92,154.22Z" fill="#e1d154" stroke="#e1d154" stroke-miterlimit="10" style="mix-blend-mode:multiply"/><path d="M74.5,135.05c2.43-1.26,20.22-11.91,27.51-10.68,0,0,44.24-5.37,61.29-3.74s15.16,11.2,11.75,14.42.22-1.65-13.73,7-23.25,1.9-25.47-1.94,7.17-17.17-9.53-8.83S85.86,145,85.86,145s-4.58,5.39-8.57,0S74.5,135.05,74.5,135.05Z" fill="#e1cf66" stroke="#e1d154" stroke-miterlimit="10"/><path d="M192.76,139.81c-2.43,1.26-43.23,15.91-50.51,14.68,0,0-44.24,5.37-61.29,3.73S65.79,147,69.21,143.81s-.22,1.65,13.73-7,23.25-1.89,25.47,1.94-7.17,17.17,9.52,8.84,63.47-17.73,63.47-17.73,4.58-5.4,8.57,0S192.76,139.81,192.76,139.81Z" fill="#e1cf66" stroke="#e1d154" stroke-miterlimit="10" style="mix-blend-mode:multiply"/><path d="M94,143.64s2.05,1.79,11.67,3.06,3,10.65,25.37,7.52,29.85-14,35.72-17.47,9.31-6.82,11.77-6.14.71-7.23-2.26-7.44-55.13,1-65.13,6.58c-.75.41,7.26-4.11-3.79,1.22S92,140.86,91.62,141.75,94,143.64,94,143.64Z" fill="#e1cf66" stroke="#e1d154" stroke-miterlimit="10" style="mix-blend-mode:multiply"/><g style="mix-blend-mode:multiply"><path d="M51.68,159.46a74.66,74.66,0,0,1,9.18-10.22,84.27,84.27,0,0,1,10.81-8.55A108.91,108.91,0,0,1,96.39,128.5a160.45,160.45,0,0,1,26.76-6.61c4.53-.74,9.08-1.31,13.64-1.76s9.14-.75,13.72-.93A132.85,132.85,0,0,1,178,120.75,93,93,0,0,1,191.33,124c1.1.33,2.17.74,3.25,1.14s2.15.81,3.2,1.26l6.3,2.67c4.19,1.75,8.51,3.2,13,3.33a28.08,28.08,0,0,1,3.49.31,8.62,8.62,0,0,1,3.41,1.33c2.09,1.42,3.31,3.54,4.57,5.4a22.43,22.43,0,0,0,2,2.64,19.92,19.92,0,0,0,2.45,2.18c1.75,1.39,3.77,2.76,5.16,4.92s1.86,4.49,2.6,6.56,1.68,3.93,3.37,4.41l1.36.38-.68,1.3a13,13,0,0,1-3.87,4.39,18.35,18.35,0,0,1-5.1,2.6A47.7,47.7,0,0,1,225,170.6c-7,.61-13.9,2.19-20.93,3.59-3.52.7-7.07,1.34-10.68,1.75a62.51,62.51,0,0,1-10.95.35c-7.31-.4-14.32-2-21.29-3A169.21,169.21,0,0,0,140,171.85c-7.09-.09-14.21.15-21.35.3s-14.29.21-21.45-.11a125.81,125.81,0,0,1-21.28-2.64l0-.29a140.36,140.36,0,0,0,21.27,1.53c7.11.05,14.22-.29,21.33-.68s14.26-.72,21.43-.81a154,154,0,0,1,21.55,1.07c7.17.93,14.13,2.45,21.08,2.87s13.89-.61,20.86-1.89,14-2.83,21.27-3.37A47.72,47.72,0,0,0,235,166.35c3.17-1,6.14-2.84,7.68-5.62l.67,1.68a6.28,6.28,0,0,1-3.22-2.56,13.49,13.49,0,0,1-1.5-3.4c-.71-2.24-1.15-4.45-2.19-6.22s-2.83-3.12-4.59-4.59a22.83,22.83,0,0,1-2.57-2.46,25.89,25.89,0,0,1-2.05-2.89c-1.21-1.94-2.32-3.91-4-5.13s-3.94-1.44-6.21-1.6a30.64,30.64,0,0,1-6.84-1.19A53.94,53.94,0,0,1,203.7,130l-6.27-2.74c-1-.46-2.1-.86-3.17-1.24s-2.13-.79-3.22-1.11a81,81,0,0,0-13.25-3,130.55,130.55,0,0,0-27.17-.59c-9.05.68-18.09,1.83-27,3.24a176.4,176.4,0,0,0-26.41,6.27A115.94,115.94,0,0,0,72.58,142.1a99.74,99.74,0,0,0-11,8,84.28,84.28,0,0,0-9.68,9.59Z" fill="#e1d154"/></g><path d="M64.4,165.65c0,.23,1-.54,1.24,0,.75-.25-.09-1.06.11-1.48,1.14.15,2.07.64,3,.11.8-.79-2.27-.55-2.19-1.44-.15.17-.29.35-.43.54-1.75-1-.18-2.25-.24-3.4,1.53-.41,4.38-.07,4.21-1.14a2.42,2.42,0,0,0,1,.67c.56,0,.42-.33.27-.58-1-1-1.7-.59-2.55-1.16-.43-.65-1.08-1.45-.19-1.74.87.13,1.72.29,2.56.46-1.28-1-1.12-1.27-.71-1.49s1.08-.34.92-1c1.45.73.16-1.43,1.61-.65.23-.39,3.59,2.51,4.76,3,1.13.21.38.73,1.51.95.2.81-3.56-2.46-3.6-1.46l.51.31c.6.79-1.3.24,0,1.33-.74.55-2-1.24-3.35-1.54,1,.94.93,2.09,2.73,3,.09-.2.19-.39.29-.58,0,.12.4.25.53.37-1-.27.16.8.93,1.49s1.14,1.06-1.46-.35c-.29-.23,0-.34-.57-.7-1.24-.59-.83.14-1.09.4,1.13.93,3.17,2.16,2.25,2.3-.4,0-1.14-.36-1.55-.33,1.06,1.48-2,.41-1.71,1.78-1.85.32-.87,1.5-2.66,2,1.24.07.47.6.29.75-.56,0-1.51.4-1.19.77,0-.2-.58-.12-.88-.29.53.81-1.37.83-2.52.83C65.58,166.67,63.64,166.42,64.4,165.65Z" fill="#e1d154"/><path d="M73.52,150.61c1.88,1.64,1.34-.43,3.19,1.74.64-.09.41-.53-.06-1.14-1-.09-.24-.3-1.29-.72a6.67,6.67,0,0,1,0-2.14,6.53,6.53,0,0,1,.74-1.89c2.09-.53.73-2.07-.45-4,1-.47,2.44.76,3.61,1.4l.4-.78c.36.49.72,1,1.1,1.42.88.39,1.09.09,1.82.21l-.14-.3c2,1,1.82,1.33,1.28,1.55s-1.48.4-1,.94c0-.9-1.44-.36-2.15-1l-.24.23c0-.25-1-1.17-.95-2a3.14,3.14,0,0,0-.3,3,34.28,34.28,0,0,0,1.61,3.51c-.24-.16-.52-.43-.87-.4-.33.52,1.66,2,2.1,2.7-.15-.23-.31-.45-.47-.67-1.12-.06-.19,1.38-.36,2-1.29-.15-2.53-.67-2.39.5l-.74-.62-.79.2c0-.22-.39-.42-.57-.52s0-.11.15-.12a14.23,14.23,0,0,0-3.9-2.25c.16,0,.32,0,.31-.16-.66-.19-2.2.1-3-1.24C70.79,149.34,73.33,151.42,73.52,150.61Z" fill="#e1d154"/><path d="M76.66,157.33c1,0,.76.67,1.68,1.12l-.14.42C77.27,158.33,77.42,157.89,76.66,157.33Z" fill="#e1d154"/><path d="M77.48,138.37c.78.4.68-.21,1-.3-.3-.81-1.09-1.52-.23-1.87,1.81,2,2.95,1.33,4.52,2,0,.47,1,1.82-.41,1.46a1.73,1.73,0,0,0-1.57-.28c.9,1,3.39,1.93,3.19,3.26-.49,0-.19.8-1.44.08-.53-.09,1,.89-.15.49l-.57-.19c-.14-.38-.28-.77-.4-1.17.19.07.57.21.53.1-1-.33-1.37-1.92-3.17-2.29-.2.41-.4.81-.58,1.22A1.38,1.38,0,0,1,77,139.46C78.2,139.3,78,139.25,77.48,138.37Z" fill="#e1d154"/><path d="M78.86,142.9l-.39-.1c0-.4.08-.8.13-1.2C78.68,142,78.75,142.47,78.86,142.9Z" fill="#e1d154"/><path d="M79.76,134.22c.18.48-.35.32-.16.79l-1.45-1.12C78.69,134,79.23,134.1,79.76,134.22Z" fill="#e1d154"/><path d="M83.63,148.81c1.53.77.43,1.26,1.66,2,.11-.22-.29-.27-.54-.42l-.67.26C83.16,149.73,83.75,149.41,83.63,148.81Z" fill="#e1d154"/><path d="M81.58,132.48c.41-.77-.82-2.37.63-2.32.51.24.42.88.94,1s.07-.5,0-.88l-.48-.37c.48.37,1,.62,1.56,1a5.73,5.73,0,0,1,1.55,1.78c-.62.15-.3,1.15,0,2s.48,1.48-.5,1.06l-1.48-1.29v.72c-.16-.11-.5-.46-.5-.22.34.82.84.44,1.51,1.13.07.5.15,1,.25,1.48-.16,0-.36-.44-.53-.55-1-.29,1,1.76-.56.95-.15-.37-.3-.75-.44-1.13a5.35,5.35,0,0,1-2.49.31c.63-.47.11-1.63-.2-2.72S80.35,132.34,81.58,132.48Z" fill="#e1d154"/><path d="M222.75,167.44c.05.22.92-.66,1.21-.24.35-.19.27-.46.09-.71s-.44-.5-.42-.73c1.08-.35,2.2-.09,2.77-1.28.21-1.49-2.25.52-2.72-.47,0,.26,0,.53,0,.78a1.53,1.53,0,0,1-1.6-1.12,5.31,5.31,0,0,0-.93-1.91c.7-1.51,2.54-3.88,1.23-4.87a1.81,1.81,0,0,0,1.2-.32c.31-.53-.21-.8-.56-.92-1.52,0-1.38,1.18-2.38,1.48-.9-.2-2-.2-2-1.37l1.4-2.36c-3,1.13-1.2-1.64-3-2.31,1.13-1.21-1.66-1.13-.56-2.34-.48-.56,3.37-2.81,3.94-4.07.09-1.55,1.08.16,1.17-1.39,1.29.6-3.13,3-1.72,3.92l.43-.42c1.16,0,.31,2,1.91,1.4.72,1.59-1.91,1.32-2.52,2.77,1.39-.4,2.87.9,4.59-.18l-.77-1.08c.16.15.42-.23.61-.26-1.07,1.85,6.79-.57,1.53,2.16-.39.06-.49-.43-1.11-.18-1.1.82,0,1.18.24,1.82,1.55-.21,4-.84,3.94.59-.1.53-.92.77-1,1.3a1.57,1.57,0,0,1,1,2.13,2.43,2.43,0,0,0,.36,2.57,4.21,4.21,0,0,0-.06,2.73,3,3,0,0,1-.4,2.62c1.16-.48.74.89.59,1.2-.52.3-1.34,1.11-1,1.64,0-.32-.59-.12-.9-.33.32.58-.05.92-.6,1.07a6.57,6.57,0,0,1-1.88.1C224,168.08,222.13,168.1,222.75,167.44Z" fill="#e1d154"/><path d="M213,146.62c2-1.51-.85-2.05,1.92-3.18-.22-.91-.82-.84-1.63-.61,0,1.24-.4.12-.83,1.25a27.21,27.21,0,0,1-6.8-3.67c-.83-2.51-3.23-1.64-5.53-.57-.79-1.05.53-2.53,1.27-3.66l-1.37-.57c.65-.33,1.31-.64,2-1,.39-.88-.23-1.19-.34-2l-.49.08c1-2,1.75-1.72,2.44-1s1.32,1.88,2.27,1.59c-1.78-.44-.33,1.46-1.38,2l.44.36c-.47-.16-1.84.62-3.07.42,3,1.73,6.59,1.53,10.38,1.62-.24.17-.64.34-.6.75.79.7,2.81-.82,3.69-1l-.86.24c-.1,1.24,1.77.81,2.56,1.27-.1,1.5-.63,2.8,1,3.34l-.74.61c.14.4.28.81.41,1.21-.32-.11-.54.25-.65.42-.26.12-.15-.05-.2-.28a10.27,10.27,0,0,0-2.65,3.74c0-.21-.06-.42-.21-.47-.15.78,0,2.68-1.59,3C211.66,149.47,214.16,147.34,213,146.62Z" fill="#e1d154"/><path d="M222.12,147.51c0-1.38,1-.33,1.68-1.13l.67.78C223.61,147.8,223,147,222.12,147.51Z" fill="#e1d154"/><path d="M194.16,138c.16-.86-.59-.66-.89-1-.91.47-1.35,1.42-2.24.67,1.48-2.31,0-3.31-.44-5.07.61-.19,2-1.43,2.51.11-.3.7.34,1.36.64,1.69.94-1.06.59-3.91,3.18-3.68.32.55,1.62.27,1.1,1.62.14.59,1-1,.95.22l0,.62-1.76.37c0-.2,0-.62-.14-.58,0,1-2.22,1.55-1.8,3.51l2,.55c.26.75-.68,1.38-1.42,1.36C195.09,137.13,195.07,137.33,194.16,138Z" fill="#e1d154"/><path d="M200,136.44l0,.41-1.83-.24C198.77,136.54,199.39,136.49,200,136.44Z" fill="#e1d154"/><path d="M187.74,136.89c.43-.36.61.2,1-.16l-.38,1.8Z" fill="#e1d154"/><path d="M209.38,133.41c1.29-1.24,2.13.26,3.27-.67-.33-.24-.42.17-.65.36l.38.87C211,134.47,210.42,133.63,209.38,133.41Z" fill="#e1d154"/><path d="M184.41,136c-1.2.06-1.72,2-2.89.8-.21-.55.5-.86.14-1.35s-.57.25-.83.59l.08.61c-.14-1.23-1.09-2.34-.28-4.22,1.64.79,3.14-3.48,4.21-1.3l-.1,2,.89-.34c0,.2-.09.67.21.56.71-.68-.25-1,0-1.91l1.82-.85c.17.15-.27.51-.26.72.55,1.08,1.63-1.6,1.91.21l-1.2.82a6.35,6.35,0,0,1,2.44,2.35c-1.09-.49-2.24.41-3.28,1.16S185.25,137.19,184.41,136Z" fill="#e1d154"/><g style="mix-blend-mode:multiply"><path d="M115.91,155.15c-.44-.18.77,1.43-.25,1.24.17.47.69.65,1.26.77a5.24,5.24,0,0,1,1.59.37c-.33,1.11-1.48,1.72-.26,3.16,1.87,1.38,1.1-2.07,3-1.5l-1.14-.74c1.87-1.3,4.39.84,6.71,1.06.64.85,1.17,2.06,1.84,3.06a3.28,3.28,0,0,0,2.71,1.73c-.16.15-.8.43-.82,1,.3.63,1.11.5,1.59.37,1.45-1,0-1.83.68-2.73,1.1-.41,2.19-1.18,3.44-.25.42.92.86,1.81,1.31,2.73,1.65-2.92,3,.41,5.56-.31.26,1.67,3-.31,3.29,1.35,1.13.09-.27,4.38.53,5.7,1.52,1.2-1.21.63.31,1.83-1.84.45-.1-4.36-2.52-4.08l.05.61c-1.09.83-2.53-1.26-3.42.3-2.49-.68.36-2.29-.7-3.79-.89,1.26-3.81,1.3-4.25,3.28l2,.29c-.33,0-.14.46-.3.61-.54-1.06-2,.21-3.14,1s-1.89,1.17-.85-1.63c.33-.3,1,0,1.31-.59.13-1.38-1.33-.94-2.32-1.26-1.29,1.18-3,3.27-4.51,2.09-.49-.49,0-1.22-.45-1.71-3.73.62-2.76-2.5-6.37-2.87-1.59-2.3-4.58-2.08-6-4.54-.17,1.27-1.57-.05-1.9-.41-.06-.65-.77-1.92-1.67-2,.47.2.44-.44.89-.55-2-.36-1.4-2.2-.94-3.24C113.79,155.49,114.74,153.86,115.91,155.15Z" fill="#e1d154"/><path d="M152.59,165.84c-.62,2.44,3.22,1.09,1.24,3.71a1.87,1.87,0,0,0,2.47-.5c-1.3-1,.36-.34-.28-1.5a38.76,38.76,0,0,1,12.66-.09c2.92,2,5.71.39,8.66-1.32,1.74.77.52,2.58.06,3.88l2.24.14-2.33,1.5c-.11,1,.91,1.06,1.45,1.8l.64-.22c-.92,4.45-4.52-.29-6.73.9,2.61-.18-.34-1.49.8-2.32l-.8-.2c.73,0,2.21-1.2,4.09-1.38-5.16-.75-10.38.72-14.81,2.54.14-.27.5-.61.14-.95-1.53-.21-2.61,2.16-3.35,2.83l.73-.67c-.87-1.1-2.55.31-3.72.43-1.16-1.24-1.87-2.63-4.06-2l.16-1-1.66-.66c.44-.12.3-.54.23-.74.15-.27.22-.07.51.08a7,7,0,0,0-1.28-4.6,1.33,1.33,0,0,0,.79.23c-.71-.7-3.23-2-1.77-3.33C150.85,162.74,150.51,166,152.59,165.84Z" fill="#e1d154"/><path d="M142.18,171.28c1.55,1-.59.94-.36,2l-1.5-.11C140.42,172.11,141.91,172.2,142.18,171.28Z" fill="#e1d154"/><path d="M187.3,166.25c.13.88,1.18.49,1.77.74,1.18-.68,1.47-1.72,3.15-1.2-1.34,2.6,1.36,3.2,2.56,4.83-.84.32-2.41,1.85-3.73.49.17-.76-1-1.24-1.61-1.49-.94,1.28.67,3.93-3.09,4.38-.68-.44-2.39.16-2.25-1.27-.46-.53-.95,1.26-1.45.06l-.24-.61,2.35-.84c.08.2.25.6.46.53-.41-1,2.57-2.1,1.1-3.87h-3.16c-.75-.65.36-1.52,1.5-1.7C186.28,167.33,186.2,167.12,187.3,166.25Z" fill="#e1d154"/><polygon points="179.32 169.36 179.16 168.95 181.96 168.65 179.32 169.36" fill="#e1d154"/><path d="M197.6,165.8c-.54.44-1-.07-1.55.37l-.06-1.84Z" fill="#e1d154"/><path d="M168.24,175.36c-.84,1.64-2.69.62-3.41,2,.52.06.37-.34.51-.62l-1-.61C165.68,175,166.86,175.58,168.24,175.36Z" fill="#e1d154"/><path d="M202.3,165.89a.2.2,0,0,0,.1-.19v-.1s0,0,0,0,.11.32.15.44a5.26,5.26,0,0,0,.39.9l.74,1.13-.09-.13a1.37,1.37,0,0,0-.2-.21c-.12-.11-.19-.09.14,0s-.34-.12.07,0a1.88,1.88,0,0,0,.9.07l-.19,0c.24,0,.51-.12.41-.07h0l-2,1.67h0l0,0,0-.06.06-.12a2.1,2.1,0,0,1,.34-.46,2.4,2.4,0,0,1,.48-.39,2.1,2.1,0,0,1,.3-.15l.18-.07.09,0,0,0h.05c.17-.14-.37.31.37-.32.09-.07,0,0-.15,0l-.13,0h-.07a.69.69,0,0,1,.2.07,1.91,1.91,0,0,1,.75,1.1,1.46,1.46,0,0,1-.23,1.4,1.06,1.06,0,0,1-1.43.1,17.82,17.82,0,0,1-.7-1.84,4.78,4.78,0,0,1-.91.6c-.09-.2-.07-.67-.43-.5-.77.84.61.9.61,1.85-.75.44-1.59.83-2.4,1.23-.3-.12.25-.56.16-.76-1.16-.94-1.89,1.91-2.89.2l1.51-1.06a12.08,12.08,0,0,1-4.46-1.76c1.82.23,3.24-.9,4.6-1.85a7,7,0,0,1,2.06-1.09C201.47,165.41,202,165.45,202.3,165.89Z" fill="#e1d154"/></g><ellipse cx="121.42" cy="135.45" rx="1.75" ry="3.43" transform="translate(-58.87 111.26) rotate(-40.49)" fill="#ccc7ae" stroke="#ccc7ae" stroke-miterlimit="10" stroke-width="0.92" style="mix-blend-mode:multiply"/><ellipse cx="121.44" cy="134.64" rx="1.55" ry="3.04" transform="translate(-58.34 111.09) rotate(-40.49)" fill="#eae4c0" stroke="#eae4c0" stroke-miterlimit="10" stroke-width="0.81"/><ellipse cx="116.33" cy="171.62" rx="1.75" ry="3.43" transform="translate(-83.57 116.62) rotate(-40.49)" fill="#ccc7ae" stroke="#ccc7ae" stroke-miterlimit="10" stroke-width="0.92" style="mix-blend-mode:multiply"/><ellipse cx="116.36" cy="170.81" rx="1.55" ry="3.04" transform="translate(-83.04 116.44) rotate(-40.49)" fill="#eae4c0" stroke="#eae4c0" stroke-miterlimit="10" stroke-width="0.81"/><ellipse cx="94.12" cy="131.33" rx="1.75" ry="3.43" transform="translate(-62.73 92.55) rotate(-40.49)" fill="#ccc7ae" stroke="#ccc7ae" stroke-miterlimit="10" stroke-width="0.92" style="mix-blend-mode:multiply"/><ellipse cx="94.14" cy="130.52" rx="1.55" ry="3.04" transform="translate(-62.2 92.37) rotate(-40.49)" fill="#eae4c0" stroke="#eae4c0" stroke-miterlimit="10" stroke-width="0.81"/><ellipse cx="149.53" cy="123" rx="1.75" ry="3.43" transform="translate(-44.06 126.53) rotate(-40.49)" fill="#ccc7ae" stroke="#ccc7ae" stroke-miterlimit="10" stroke-width="0.92" style="mix-blend-mode:multiply"/><ellipse cx="149.56" cy="122.19" rx="1.55" ry="3.04" transform="translate(-43.52 126.35) rotate(-40.49)" fill="#eae4c0" stroke="#eae4c0" stroke-miterlimit="10" stroke-width="0.81"/><ellipse cx="161.98" cy="171.94" rx="3.43" ry="1.75" transform="translate(-72.3 202.13) rotate(-54.05)" fill="#ccc7ae" stroke="#ccc7ae" stroke-miterlimit="10" stroke-width="0.92" style="mix-blend-mode:multiply"/><ellipse cx="161.46" cy="170.96" rx="3.04" ry="1.55" transform="translate(-71.73 201.3) rotate(-54.05)" fill="#eae4c0" stroke="#eae4c0" stroke-miterlimit="10" stroke-width="0.81"/><ellipse cx="142.28" cy="139.13" rx="3.43" ry="1.75" transform="translate(-54.38 169.54) rotate(-53.15)" fill="#ccc7ae" stroke="#ccc7ae" stroke-miterlimit="10" stroke-width="0.92" style="mix-blend-mode:multiply"/><ellipse cx="142.08" cy="137.98" rx="3.04" ry="1.55" transform="translate(-53.54 168.92) rotate(-53.15)" fill="#eae4c0" stroke="#eae4c0" stroke-miterlimit="10" stroke-width="0.81"/><ellipse cx="155.21" cy="154.93" rx="3.43" ry="1.75" transform="translate(-61.86 186.21) rotate(-53.15)" fill="#ccc7ae" stroke="#ccc7ae" stroke-miterlimit="10" stroke-width="0.92" style="mix-blend-mode:multiply"/><ellipse cx="155.01" cy="153.78" rx="3.04" ry="1.55" transform="translate(-61.01 185.59) rotate(-53.15)" fill="#eae4c0" stroke="#eae4c0" stroke-miterlimit="10" stroke-width="0.81"/><ellipse cx="127.38" cy="150.6" rx="1.75" ry="3.43" transform="translate(-39.53 255.71) rotate(-81.97)" fill="#ccc7ae" stroke="#ccc7ae" stroke-miterlimit="10" stroke-width="0.92" style="mix-blend-mode:multiply"/><ellipse cx="127.3" cy="149.87" rx="1.55" ry="3.04" transform="translate(-38.88 255) rotate(-81.97)" fill="#eae4c0" stroke="#eae4c0" stroke-miterlimit="10" stroke-width="0.81"/><ellipse cx="162.93" cy="138.34" rx="1.75" ry="3.43" transform="matrix(0.32, -0.95, 0.95, 0.32, -19.75, 249.29)" fill="#ccc7ae" stroke="#ccc7ae" stroke-miterlimit="10" stroke-width="0.92" style="mix-blend-mode:multiply"/><ellipse cx="162.96" cy="136.78" rx="1.55" ry="3.04" transform="translate(-18.26 248.26) rotate(-71.61)" fill="#eae4c0" stroke="#eae4c0" stroke-miterlimit="10" stroke-width="0.81"/><ellipse cx="232.95" cy="154.8" rx="3.43" ry="1.75" transform="matrix(0.86, -0.51, 0.51, 0.86, -46.33, 139.66)" fill="#ccc7ae" stroke="#ccc7ae" stroke-miterlimit="10" stroke-width="0.92" style="mix-blend-mode:multiply"/><ellipse cx="231.8" cy="153.75" rx="3.04" ry="1.55" transform="translate(-45.96 138.93) rotate(-30.5)" fill="#eae4c0" stroke="#eae4c0" stroke-miterlimit="10" stroke-width="0.81"/><ellipse cx="139.54" cy="164.45" rx="1.75" ry="3.43" transform="translate(-60.54 244.97) rotate(-71.61)" fill="#ccc7ae" stroke="#ccc7ae" stroke-miterlimit="10" stroke-width="0.92" style="mix-blend-mode:multiply"/><ellipse cx="139.57" cy="162.89" rx="1.55" ry="3.04" transform="translate(-59.04 243.93) rotate(-71.61)" fill="#eae4c0" stroke="#eae4c0" stroke-miterlimit="10" stroke-width="0.81"/><ellipse cx="77.78" cy="146.35" rx="1.75" ry="3.43" transform="translate(-76.39 85.54) rotate(-40.49)" fill="#ccc7ae" stroke="#ccc7ae" stroke-miterlimit="10" stroke-width="0.92" style="mix-blend-mode:multiply"/><ellipse cx="77.81" cy="145.53" rx="1.55" ry="3.04" transform="translate(-75.86 85.36) rotate(-40.49)" fill="#eae4c0" stroke="#eae4c0" stroke-miterlimit="10" stroke-width="0.81"/><ellipse cx="70.53" cy="162.48" rx="3.43" ry="1.75" transform="translate(-101.78 121.47) rotate(-53.15)" fill="#ccc7ae" stroke="#ccc7ae" stroke-miterlimit="10" stroke-width="0.92" style="mix-blend-mode:multiply"/><ellipse cx="70.33" cy="161.33" rx="3.04" ry="1.55" transform="translate(-100.94 120.85) rotate(-53.15)" fill="#eae4c0" stroke="#eae4c0" stroke-miterlimit="10" stroke-width="0.81"/><ellipse cx="91.59" cy="163.18" rx="1.75" ry="3.43" transform="translate(-92.16 198.6) rotate(-71.61)" fill="#ccc7ae" stroke="#ccc7ae" stroke-miterlimit="10" stroke-width="0.92" style="mix-blend-mode:multiply"/><ellipse cx="91.62" cy="161.63" rx="1.55" ry="3.04" transform="translate(-90.66 197.56) rotate(-71.61)" fill="#eae4c0" stroke="#eae4c0" stroke-miterlimit="10" stroke-width="0.81"/><ellipse cx="98.85" cy="145" rx="3.43" ry="1.75" transform="translate(-63.65 78.75) rotate(-33.54)" fill="#ccc7ae" stroke="#ccc7ae" stroke-miterlimit="10" stroke-width="0.92" style="mix-blend-mode:multiply"/><ellipse cx="98.42" cy="143.51" rx="3.04" ry="1.55" transform="translate(-62.9 78.26) rotate(-33.54)" fill="#eae4c0" stroke="#eae4c0" stroke-miterlimit="10" stroke-width="0.81"/><ellipse cx="59.26" cy="151.69" rx="3.43" ry="1.75" transform="translate(-73.94 57.99) rotate(-33.54)" fill="#ccc7ae" stroke="#ccc7ae" stroke-miterlimit="10" stroke-width="0.92" style="mix-blend-mode:multiply"/><ellipse cx="58.83" cy="150.2" rx="3.04" ry="1.55" transform="translate(-83.43 74.16) rotate(-40.49)" fill="#eae4c0" stroke="#eae4c0" stroke-miterlimit="10" stroke-width="0.81"/><ellipse cx="117.3" cy="124.14" rx="3.43" ry="1.75" transform="translate(-30.68 38.87) rotate(-16.67)" fill="#ccc7ae" stroke="#ccc7ae" stroke-miterlimit="10" stroke-width="0.92" style="mix-blend-mode:multiply"/><ellipse cx="116.98" cy="123.1" rx="3.04" ry="1.55" transform="translate(-30.4 38.73) rotate(-16.67)" fill="#eae4c0" stroke="#eae4c0" stroke-miterlimit="10" stroke-width="0.81"/><ellipse cx="134.22" cy="129.89" rx="1.75" ry="3.43" transform="translate(-6.49 252.71) rotate(-85.18)" fill="#ccc7ae" stroke="#ccc7ae" stroke-miterlimit="10" stroke-width="0.92" style="mix-blend-mode:multiply"/><ellipse cx="134.31" cy="128.8" rx="1.55" ry="3.04" transform="translate(-5.32 251.81) rotate(-85.18)" fill="#eae4c0" stroke="#eae4c0" stroke-miterlimit="10" stroke-width="0.81"/><ellipse cx="176.33" cy="158.25" rx="1.75" ry="3.43" transform="translate(-60.52 152.37) rotate(-40.49)" fill="#ccc7ae" stroke="#ccc7ae" stroke-miterlimit="10" stroke-width="0.92" style="mix-blend-mode:multiply"/><ellipse cx="176.35" cy="157.43" rx="1.55" ry="3.04" transform="translate(-59.99 152.19) rotate(-40.49)" fill="#eae4c0" stroke="#eae4c0" stroke-miterlimit="10" stroke-width="0.81"/><ellipse cx="209.43" cy="150.44" rx="1.75" ry="3.43" transform="translate(-47.53 171.99) rotate(-40.49)" fill="#ccc7ae" stroke="#ccc7ae" stroke-miterlimit="10" stroke-width="0.92" style="mix-blend-mode:multiply"/><ellipse cx="209.45" cy="149.63" rx="1.55" ry="3.04" transform="translate(-47 171.81) rotate(-40.49)" fill="#eae4c0" stroke="#eae4c0" stroke-miterlimit="10" stroke-width="0.81"/><ellipse cx="230.72" cy="142.3" rx="1.75" ry="3.43" transform="translate(-24.94 232.4) rotate(-51.08)" fill="#ccc7ae" stroke="#ccc7ae" stroke-miterlimit="10" stroke-width="0.92" style="mix-blend-mode:multiply"/><ellipse cx="230.6" cy="141.49" rx="1.55" ry="3.04" transform="translate(-24.36 232) rotate(-51.08)" fill="#eae4c0" stroke="#eae4c0" stroke-miterlimit="10" stroke-width="0.81"/><ellipse cx="196.18" cy="166.57" rx="3.43" ry="1.75" transform="translate(-54.77 223.65) rotate(-53.15)" fill="#ccc7ae" stroke="#ccc7ae" stroke-miterlimit="10" stroke-width="0.92" style="mix-blend-mode:multiply"/><ellipse cx="195.98" cy="165.42" rx="3.04" ry="1.55" transform="translate(-53.92 223.03) rotate(-53.15)" fill="#eae4c0" stroke="#eae4c0" stroke-miterlimit="10" stroke-width="0.81"/><ellipse cx="217.83" cy="163.78" rx="1.75" ry="3.43" transform="translate(-6.32 318.8) rotate(-71.61)" fill="#ccc7ae" stroke="#ccc7ae" stroke-miterlimit="10" stroke-width="0.92" style="mix-blend-mode:multiply"/><ellipse cx="217.86" cy="162.22" rx="1.55" ry="3.04" transform="translate(-4.82 317.76) rotate(-71.61)" fill="#eae4c0" stroke="#eae4c0" stroke-miterlimit="10" stroke-width="0.81"/><ellipse cx="190.11" cy="146.33" rx="1.75" ry="3.43" transform="translate(28.32 323.47) rotate(-85.18)" fill="#ccc7ae" stroke="#ccc7ae" stroke-miterlimit="10" stroke-width="0.92" style="mix-blend-mode:multiply"/><ellipse cx="190.2" cy="145.24" rx="1.55" ry="3.04" transform="translate(29.49 322.56) rotate(-85.18)" fill="#eae4c0" stroke="#eae4c0" stroke-miterlimit="10" stroke-width="0.81"/><ellipse cx="172.08" cy="126.91" rx="3.43" ry="1.75" transform="translate(-32.68 188.49) rotate(-53.15)" fill="#ccc7ae" stroke="#ccc7ae" stroke-miterlimit="10" stroke-width="0.92" style="mix-blend-mode:multiply"/><ellipse cx="171.88" cy="125.76" rx="3.04" ry="1.55" transform="translate(-31.83 187.87) rotate(-53.15)" fill="#eae4c0" stroke="#eae4c0" stroke-miterlimit="10" stroke-width="0.81"/><ellipse cx="203.87" cy="131.34" rx="1.75" ry="3.43" transform="translate(-25.72 209.44) rotate(-51.58)" fill="#ccc7ae" stroke="#ccc7ae" stroke-miterlimit="10" stroke-width="0.92" style="mix-blend-mode:multiply"/><ellipse cx="203.87" cy="129.69" rx="1.55" ry="3.04" transform="matrix(0.62, -0.78, 0.78, 0.62, -24.43, 208.82)" fill="#eae4c0" stroke="#eae4c0" stroke-miterlimit="10" stroke-width="0.81"/></g></svg>